<svg width="55" height="55" viewBox="0 0 55 55" fill="none" xmlns="http://www.w3.org/2000/svg">
<path fill-rule="evenodd" clip-rule="evenodd" d="M36.4052 27.1186C32.3866 23.1383 28.411 19.2007 24.4729 15.3002C24.6135 15.1522 24.7514 14.9978 24.8905 14.8421L24.8905 14.8421L24.8905 14.8421C25.2022 14.4932 25.5192 14.1384 25.8822 13.8371C26.8301 13.0495 28.1892 13.1335 29.0948 13.9769C29.2744 14.1438 29.4386 14.3269 29.6068 14.5146L29.6068 14.5146L29.6069 14.5146C29.6854 14.6022 29.7648 14.6908 29.8471 14.7791C29.8987 14.731 29.9437 14.6896 29.9842 14.6522C30.0598 14.5825 30.12 14.5271 30.1784 14.4693C30.5815 14.0708 30.9831 13.6707 31.3848 13.2706L31.3849 13.2704C32.2337 12.4247 33.0827 11.5789 33.9463 10.7485C36.6906 8.10902 41.263 9.38681 42.1848 13.0628C42.6242 14.8155 42.1827 16.3857 40.9063 17.6858C39.9749 18.635 39.0252 19.5669 38.0758 20.4986L38.0757 20.4987C37.7736 20.7951 37.4716 21.0915 37.1702 21.3884C37.1119 21.4461 37.0398 21.4899 36.944 21.548C36.8913 21.5801 36.8314 21.6164 36.7626 21.6619C36.8891 21.7745 37.0079 21.8757 37.1197 21.971L37.1198 21.9711L37.1198 21.9711C37.3433 22.1615 37.539 22.3282 37.7127 22.5151C38.4735 23.3334 38.5971 24.5805 37.9324 25.4722C37.6218 25.8886 37.2513 26.2608 36.8853 26.6285C36.7227 26.7918 36.561 26.9542 36.4059 27.1193L36.4052 27.1186ZM16.2831 45.0993C15.5795 44.9188 14.9021 44.6908 14.3102 44.2439C12.3436 42.7605 12.0745 39.8594 13.7691 38.0767C14.4079 37.4052 15.0739 36.7582 15.7394 36.1116C15.8621 35.9924 15.9847 35.8733 16.1072 35.754C16.5706 35.3029 17.1823 35.3001 17.6485 35.7512C17.7178 35.8182 17.7871 35.8852 17.8564 35.9523L17.8567 35.9526L17.8569 35.9527C18.5521 36.6253 19.2479 37.2983 19.9132 37.999C21.054 39.1999 21.4065 40.6295 20.8986 42.1912C20.3872 43.7648 19.2563 44.7195 17.6012 45.0384C17.5721 45.0442 17.545 45.0612 17.5181 45.078L17.5181 45.078C17.5058 45.0857 17.4935 45.0934 17.4811 45.1H16.2824L16.2831 45.0993ZM24.9473 32.4108C25.1876 32.1451 25.4293 31.8777 25.6801 31.6164H25.6787C25.6797 31.6174 25.6785 31.6162 25.6757 31.6132C25.6658 31.6023 25.6351 31.5688 25.6031 31.5366C25.3999 31.3354 25.1958 31.1347 24.9918 30.9341C24.5039 30.4544 24.0158 29.9745 23.5377 29.4853C22.9683 28.902 23.1704 28.0047 23.9191 27.7592C24.3458 27.6193 24.7265 27.7242 25.0458 28.0439C25.5586 28.5571 26.0729 29.0689 26.5719 29.5654C26.7787 29.7713 26.9829 29.9746 27.1833 30.1742C27.7018 29.6602 28.1942 29.172 28.7197 28.6502C28.6996 28.6338 28.676 28.6157 28.6506 28.5962C28.5894 28.5493 28.517 28.4938 28.4527 28.4306C27.8028 27.7914 27.153 27.1514 26.5094 26.5052C26.2113 26.2058 26.1365 25.8394 26.2629 25.4428C26.3971 25.0225 26.7122 24.7966 27.1431 24.7434C27.5054 24.6987 27.8042 24.8469 28.0578 25.1001C28.5327 25.5744 29.009 26.0472 29.4755 26.5101C29.7141 26.7469 29.9501 26.9811 30.1819 27.2116C30.4714 26.925 30.7541 26.6453 31.0267 26.3755C31.281 26.124 31.5265 25.881 31.7607 25.6491C30.8065 24.7051 29.846 23.7549 28.8808 22.8001C27.8675 21.7977 26.8491 20.7903 25.8278 19.7798C25.8111 19.7956 25.7907 19.8145 25.7679 19.8355C25.721 19.8788 25.6639 19.9315 25.6088 19.9861C24.4454 21.1373 23.2827 22.2885 22.1193 23.4404C21.6718 23.8833 21.2247 24.3266 20.7776 24.7698C19.7715 25.7672 18.7656 26.7645 17.7552 27.7571C16.9725 28.5257 16.4915 29.4426 16.4434 30.5302C16.3657 32.3067 17.1159 33.6901 18.7095 34.5105C20.2975 35.3273 21.9045 35.2029 23.2904 34.0698C23.8904 33.5794 24.4153 32.999 24.9473 32.4108Z" fill="white"/>
</svg>
