<svg width="55" height="55" viewBox="0 0 55 55" fill="none" xmlns="http://www.w3.org/2000/svg">
<g clip-path="url(#clip0_44_78)">
<path fill-rule="evenodd" clip-rule="evenodd" d="M32.9386 29.0408C33.1622 29.1402 33.3865 29.2399 33.6115 29.34C33.6313 29.302 33.6501 29.2675 33.6678 29.2349C33.7007 29.1746 33.7298 29.121 33.7548 29.0653C34.0229 28.47 34.2911 27.8748 34.5593 27.2796C35.7314 24.6782 36.9034 22.0768 38.0731 19.4741C38.6991 18.0819 38.8699 16.6356 38.6419 15.1244C38.1375 11.7783 35.124 9.00976 31.74 8.81438C28.4225 8.62332 25.5537 10.345 24.1881 13.3594C23.2266 15.4822 22.2702 17.6076 21.3136 19.7332L21.3117 19.7375C20.9628 20.5127 20.614 21.288 20.2649 22.0631C20.2373 22.1243 20.2144 22.1876 20.1906 22.2534C20.1782 22.2876 20.1656 22.3225 20.152 22.358C21.4785 22.5469 22.4056 23.2051 22.918 24.4229C22.9694 24.544 23.125 24.6464 23.256 24.7055C25.5137 25.7232 27.7744 26.7345 30.0349 27.7457L30.7767 28.0775C31.4933 28.3982 32.2107 28.7171 32.9344 29.0389L32.9386 29.0408ZM19.9749 45.5217C20.1525 45.5629 20.3301 45.604 20.5066 45.6486L20.5059 45.65H22.1675C22.2201 45.6389 22.2728 45.6276 22.3255 45.6162L22.326 45.6161L22.3264 45.616C22.4349 45.5926 22.5435 45.5692 22.6524 45.5483C25.3547 45.0256 27.2559 43.5058 28.3783 41.004C29.3502 38.8378 30.3255 36.6733 31.301 34.5086C31.7267 33.5637 32.1525 32.6189 32.578 31.6738C32.6118 31.5986 32.6443 31.5231 32.6792 31.4421L32.68 31.4402C32.6871 31.4237 32.6943 31.4071 32.7016 31.3901C32.7136 31.3624 32.7259 31.334 32.7387 31.3046C30.2448 30.19 27.7871 29.0912 25.2635 27.9629C26.412 29.5952 26.3194 31.0956 25.029 32.5555C25.9148 32.8966 26.6335 33.4121 27.0417 34.2729C27.4462 35.1266 27.5041 36.0018 27.1459 36.8829C26.8513 37.6075 26.3505 38.1619 25.6579 38.5332C24.6028 39.0992 23.5396 39.0163 22.4707 38.4986C22.3947 40.0285 21.7637 41.1576 20.3235 41.6925C18.8898 42.2253 17.6755 41.7747 16.6362 40.6961C16.3228 41.4582 15.8307 42.0271 15.1324 42.4214C16.0949 43.7581 17.2912 44.7055 18.8109 45.2131C19.1909 45.3401 19.5829 45.4309 19.9749 45.5217ZM22.1863 31.5541V33.6248C22.4015 33.7216 22.6207 33.8197 22.8428 33.919C23.4043 34.1701 23.9837 34.4292 24.5593 34.6969C25.058 34.9283 25.2802 35.3731 25.1962 35.9038C25.1289 36.3248 24.762 36.7048 24.2872 36.7524C24.0506 36.7762 23.7835 36.7142 23.5599 36.6204C22.9926 36.383 22.4318 36.1289 21.8788 35.8784C21.6778 35.7873 21.4777 35.6967 21.2788 35.6075L21.0031 35.8672C20.5904 36.2561 20.1818 36.6412 19.7518 37.0465C19.7886 37.1433 19.827 37.2437 19.8664 37.3468L19.8664 37.3468C19.9704 37.6186 20.0815 37.9092 20.1896 38.2008C20.4299 38.8519 20.1845 39.4539 19.5889 39.6853C19.002 39.9131 18.4035 39.6211 18.1466 38.9751C18.0369 38.6998 17.9321 38.4223 17.8345 38.1641L17.8345 38.164C17.7911 38.049 17.7491 37.9379 17.7087 37.8324C17.5191 37.8223 17.3339 37.8133 17.152 37.8045L17.1519 37.8045C16.7104 37.783 16.2878 37.7625 15.8655 37.7293C15.6751 37.7142 15.5897 37.7726 15.5166 37.9405C15.2105 38.6428 14.8993 39.3428 14.5722 40.0357C14.3703 40.4633 13.9078 40.7134 13.4866 40.6615C13.0097 40.6024 12.611 40.2859 12.5386 39.8093C12.5002 39.5548 12.5538 39.2578 12.6529 39.0155C12.8733 38.4784 13.1159 37.9504 13.347 37.4473L13.3471 37.4473C13.4339 37.2582 13.5192 37.0727 13.601 36.8915C13.4924 36.7693 13.3861 36.6491 13.2814 36.5306L13.2814 36.5306C12.9556 36.162 12.6448 35.8102 12.3244 35.4676C12.2665 35.4056 12.1116 35.3796 12.0255 35.4077C11.7865 35.4874 11.5511 35.5777 11.3156 35.6681L11.3155 35.6681L11.3153 35.6682C11.1588 35.7283 11.0022 35.7884 10.8444 35.8454C10.2177 36.071 9.61265 35.8173 9.38324 35.2405C9.15527 34.6666 9.43535 34.0689 10.0577 33.818C10.4362 33.6659 10.8169 33.5195 11.2026 33.3868C11.3799 33.3263 11.4263 33.2426 11.4241 33.0494C11.4183 32.5245 11.4422 31.9982 11.4805 31.4741C11.495 31.2816 11.432 31.1965 11.2663 31.1251L11.2662 31.125C10.6496 30.8583 10.0331 30.5916 9.42594 30.3032C8.92151 30.0631 8.68993 29.5116 8.84987 29.0076C9.00981 28.5044 9.49758 28.1777 10.0172 28.2477C10.18 28.27 10.3414 28.3349 10.4941 28.4013C10.9556 28.6038 11.4156 28.8106 11.8568 29.009L11.8616 29.0111C12.0172 29.0811 12.1705 29.1501 12.3208 29.2174C12.4245 29.1265 12.5275 29.0365 12.6299 28.9471L12.63 28.947C13.0257 28.6013 13.4109 28.2649 13.787 27.9189C13.8398 27.8706 13.8413 27.7228 13.813 27.6392C13.7415 27.4306 13.6623 27.225 13.5831 27.0195L13.5831 27.0195L13.5831 27.0194C13.5205 26.8568 13.4579 26.6943 13.3991 26.5303C13.1755 25.9081 13.4374 25.296 14.0128 25.0775C14.5917 24.8576 15.191 25.1403 15.4399 25.7603C15.564 26.0701 15.6818 26.3822 15.7905 26.6703L15.7905 26.6704C15.8334 26.7839 15.8748 26.8937 15.9147 26.9982C16.0874 27.0069 16.2566 27.0161 16.4231 27.0251L16.4233 27.0251C16.8926 27.0506 17.3414 27.075 17.7905 27.084C17.8933 27.0862 18.0503 26.9917 18.0945 26.9002C18.2609 26.5582 18.4158 26.2109 18.5708 25.8636L18.5708 25.8635C18.6645 25.6535 18.7581 25.4436 18.8544 25.2347C19.1468 24.5988 19.7489 24.3407 20.3286 24.5938C20.9017 24.8439 21.1268 25.4813 20.8511 26.1114C20.6716 26.5215 20.4869 26.929 20.3022 27.3366L20.3021 27.3367L20.3019 27.3371C20.2066 27.5474 20.1112 27.7577 20.0167 27.9684C20.3509 28.32 20.6717 28.6577 21.0012 29.0045L21.0234 29.0279L21.459 29.4863C21.5259 29.4617 21.5968 29.4355 21.6708 29.4082L21.671 29.4082C21.8851 29.3291 22.1245 29.2407 22.3643 29.154C23.0164 28.9189 23.6207 29.1713 23.8443 29.7704C24.0585 30.3457 23.7691 30.9283 23.1394 31.1814C22.9138 31.2719 22.687 31.3596 22.4638 31.4459L22.4634 31.446C22.3704 31.482 22.2779 31.5177 22.1863 31.5534V31.5541ZM20.0113 27.9808C20.0105 27.9842 20.0107 27.9875 20.011 27.9882C20.0113 27.9889 20.0117 27.9872 20.0113 27.9808ZM42.2142 23.21C41.9805 22.9622 41.7455 22.7129 41.4984 22.451L41.4998 22.4517C41.5791 22.2762 41.6603 22.0974 41.7426 21.9162C41.9472 21.4655 42.1587 20.9997 42.3647 20.5318C42.6411 19.9038 42.4153 19.2679 41.8371 19.017C41.2668 18.769 40.6654 19.0177 40.3795 19.6276C40.2473 19.9099 40.1201 20.1951 39.9929 20.4803C39.9398 20.5994 39.8867 20.7185 39.8332 20.8374C39.4106 21.7748 38.988 22.7121 38.5654 23.6494C37.2232 26.6264 35.8809 29.6037 34.5407 32.5822C34.2454 33.2383 34.4567 33.8692 35.0415 34.1316C35.6263 34.3948 36.2327 34.1251 36.5359 33.4647L36.5484 33.4375C36.7042 33.0984 36.8597 32.7598 37.0056 32.4164C37.0751 32.2535 37.1439 32.1958 37.3516 32.2167C37.8502 32.2679 38.3553 32.2758 38.8569 32.2635C39.0819 32.2578 39.2144 32.2909 39.2839 32.5217C39.3664 32.7956 39.4735 33.0631 39.5842 33.3277C39.831 33.9182 40.4317 34.1886 40.999 33.973C41.5585 33.7603 41.8241 33.1525 41.6149 32.5469C41.5754 32.4324 41.5315 32.3191 41.4877 32.2057C41.4192 32.0287 41.3507 31.8517 41.2987 31.6702C41.2726 31.5793 41.3182 31.4265 41.3869 31.358C41.7683 30.9788 42.1613 30.6096 42.5659 30.2549C42.6469 30.1842 42.8184 30.1374 42.9125 30.1727C43.1497 30.2622 43.3814 30.3665 43.6131 30.4707C43.7753 30.5437 43.9374 30.6166 44.1016 30.6846C44.6899 30.9283 45.3123 30.6889 45.5562 30.1388C45.7943 29.6017 45.5663 28.9982 45.0062 28.7178C44.6957 28.5628 44.3802 28.4106 44.0545 28.2924C43.7173 28.1698 43.5212 28.0191 43.671 27.6168C43.7188 27.4893 43.7159 27.3419 43.7131 27.1959C43.7121 27.1454 43.7111 27.0951 43.7122 27.0458C43.7145 26.9382 43.7037 26.8218 43.6929 26.7056C43.6695 26.4529 43.6463 26.2014 43.7578 26.0444C43.8723 25.8832 44.1162 25.8151 44.3619 25.7465C44.4766 25.7145 44.5918 25.6824 44.6943 25.6406C45.334 25.3803 45.6185 24.7762 45.3811 24.1922C45.1495 23.6233 44.5445 23.3847 43.9112 23.6147C43.657 23.7071 43.4031 23.8018 43.173 23.8877C43.0908 23.9184 43.0115 23.948 42.9364 23.9759C42.6896 23.7144 42.4526 23.463 42.2142 23.21Z" fill="white"/>
</g>
<defs>
<clipPath id="clip0_44_78">
<rect width="37.4055" height="37.3945" fill="white" transform="translate(8.7998 8.79999)"/>
</clipPath>
</defs>
</svg>
