<svg width="55" height="55" viewBox="0 0 55 55" fill="none" xmlns="http://www.w3.org/2000/svg">
<g clip-path="url(#clip0_44_96)">
<path d="M18.0624 26.121C20.8573 23.2626 23.6397 20.4168 26.4385 17.5538C26.2883 17.3994 26.1382 17.2429 25.9875 17.0858C25.6481 16.7317 25.3054 16.3744 24.9506 16.0301C23.482 14.6049 21.7409 14.0532 19.7442 14.4011C16.3194 14.9984 14.157 18.5921 15.0995 22.0321C15.5247 23.5846 16.5737 24.6316 17.6169 25.6729C17.7661 25.8219 17.9153 25.9708 18.0624 26.121Z" fill="white"/>
<path fill-rule="evenodd" clip-rule="evenodd" d="M21.3953 40.1495H20.211C20.1667 40.1395 20.1224 40.1293 20.0781 40.119C19.9811 40.0966 19.8841 40.0742 19.7867 40.0544C17.5165 39.5937 15.9386 38.2545 15.2018 36.0242C14.4552 33.7636 14.8997 31.6694 16.5122 29.9301C17.6511 28.7015 18.8285 27.5102 20.0061 26.3189L20.0061 26.3188L20.0062 26.3188C20.4897 25.8296 20.9732 25.3404 21.4541 24.8485C22.2409 24.0439 23.0268 23.2383 23.8127 22.4327L23.8127 22.4326C25.9084 20.2845 28.0041 18.1363 30.1165 16.0053C31.4387 14.6712 33.0691 14.1406 34.9184 14.3485C37.3226 14.6191 39.3391 16.4038 39.9498 18.7974C40.0049 19.0138 40.0476 19.2338 40.0903 19.4538C40.1097 19.5536 40.1291 19.6534 40.1496 19.7528V20.9645C40.145 20.9769 40.1395 20.9893 40.134 21.0016C40.1223 21.0279 40.1106 21.0543 40.1076 21.0818C39.9365 22.5803 39.261 23.8057 38.2211 24.8586C36.6542 26.4452 35.0967 28.0417 33.5394 29.6382C32.9373 30.2554 32.3351 30.8727 31.7325 31.4893C31.1175 32.1184 30.5022 32.7473 29.8868 33.3761L29.8824 33.3807C28.3015 34.9962 26.7207 36.6117 25.1449 38.2328C24.3765 39.0232 23.4958 39.6129 22.4426 39.9123C22.2073 39.979 21.9675 40.029 21.7277 40.079L21.7275 40.079C21.6166 40.1021 21.5058 40.1252 21.3953 40.15V40.1495ZM28.2152 27.2133C28.2112 26.8027 27.8953 26.4755 27.4977 26.4694C27.0937 26.4633 26.7659 26.8007 26.7654 27.2229C26.7654 27.6457 27.0907 27.9836 27.4952 27.9795C27.9017 27.9755 28.2192 27.6376 28.2152 27.2128V27.2133ZM27.52 31.1752C27.9319 31.1742 28.2612 30.8384 28.2553 30.4252C28.2493 30.0085 27.9195 29.6869 27.5036 29.6919C27.1036 29.697 26.7827 30.0237 26.7797 30.4298C26.7767 30.8435 27.1071 31.1763 27.52 31.1752ZM31.3814 27.2088C31.3764 26.79 31.0407 26.4563 30.6377 26.4679C30.2287 26.48 29.9192 26.8189 29.9281 27.2442C29.937 27.6493 30.2663 27.978 30.6599 27.9745C31.0669 27.9709 31.3863 27.6316 31.3814 27.2088ZM27.5269 24.756C27.9368 24.7529 28.2637 24.4131 28.2553 23.9984C28.2468 23.5837 27.9131 23.2615 27.4992 23.2701C27.0996 23.2782 26.7792 23.6105 26.7812 24.0141C26.7832 24.4293 27.115 24.7595 27.5264 24.7565L27.5269 24.756ZM25.1004 27.2204C25.0985 26.8032 24.7637 26.4633 24.3617 26.4709C23.9661 26.4785 23.6486 26.8098 23.6457 27.2179C23.6427 27.6376 23.9691 27.9805 24.3721 27.9805C24.7761 27.9805 25.1024 27.6397 25.1004 27.2204Z" fill="white"/>
<path d="M40.1496 33.4854V34.6466C40.1444 34.6662 40.1385 34.6856 40.1326 34.7051C40.1193 34.749 40.1059 34.7931 40.1011 34.8383C39.8331 37.2476 38.0762 39.3241 35.7744 39.9416C35.5598 39.9993 35.3418 40.0432 35.1237 40.0872C35.0222 40.1077 34.9207 40.1281 34.8195 40.15H33.6353C33.6201 40.1448 33.6051 40.1386 33.5901 40.1324C33.5596 40.1198 33.5293 40.1072 33.4978 40.1035C32.6181 40.0008 31.8071 39.6999 31.0615 39.2159C30.369 38.7662 29.8082 38.1693 29.2473 37.5724C29.037 37.3485 28.8267 37.1247 28.6095 36.9086C31.4078 34.0451 34.1801 31.2088 36.9528 28.372L36.9755 28.3487C37.1295 28.5045 37.2865 28.6618 37.4451 28.8206L37.4452 28.8207C37.7977 29.1739 38.1579 29.5348 38.5099 29.9038C39.2437 30.6726 39.7224 31.591 39.9775 32.6313C40.025 32.8244 40.0618 33.0204 40.0985 33.2163C40.1154 33.3061 40.1322 33.3959 40.1501 33.4854H40.1496Z" fill="white"/>
<path d="M28.5968 36.8955C28.5975 36.8965 28.5981 36.8973 28.5989 36.8981L28.6095 36.9086L28.6014 36.9168C28.5996 36.9074 28.5981 36.9004 28.5968 36.8955Z" fill="white"/>
<path d="M28.593 36.8854C28.5929 36.8867 28.5941 36.8915 28.5968 36.8955C28.5945 36.8862 28.5931 36.8842 28.593 36.8854Z" fill="white"/>
</g>
<defs>
<clipPath id="clip0_44_96">
<rect width="25.157" height="37.4" fill="white" transform="translate(14.8501 8.79999)"/>
</clipPath>
</defs>
</svg>
