<svg width="55" height="55" viewBox="0 0 55 55" fill="none" xmlns="http://www.w3.org/2000/svg">
<path fill-rule="evenodd" clip-rule="evenodd" d="M22.9166 18.222C22.9553 18.2236 22.9963 18.2254 23.0405 18.2277H23.0391V23.4859C23.0888 23.4962 23.1359 23.5065 23.1814 23.5164C23.2768 23.5372 23.365 23.5564 23.454 23.5707C24.4787 23.7359 25.4774 23.5536 26.4773 23.3711C26.5403 23.3596 26.6032 23.3482 26.6661 23.3368C26.7787 23.3163 26.8913 23.2958 27.0039 23.2753C28.0627 23.0822 29.1221 22.8891 30.1876 22.747C30.5734 22.6954 30.9676 22.7084 31.3712 22.7217C31.557 22.7279 31.7448 22.7341 31.9347 22.7341V18.2325C31.9911 18.2276 32.0447 18.2241 32.0964 18.2208C32.204 18.2138 32.303 18.2074 32.4002 18.1904C32.9608 18.0921 33.3127 17.6698 33.2929 17.1294C33.2737 16.6094 32.8609 16.1952 32.3002 16.1566C32.1006 16.1427 31.9 16.1457 31.6994 16.1486C31.6151 16.1499 31.5308 16.1511 31.4465 16.1511H30.5819C32.0168 14.0888 31.2973 11.9661 30.0849 10.8773C28.7835 9.70854 26.7469 9.56684 25.288 10.5668C24.5315 11.0861 24.0154 11.7892 23.7552 12.659C23.3842 13.901 23.6135 15.0556 24.3761 16.1077C24.3549 16.1163 24.3386 16.1237 24.3256 16.1297C24.3034 16.1398 24.2905 16.1457 24.2776 16.1457C24.105 16.1466 23.9323 16.1468 23.7597 16.1469C23.4316 16.1472 23.1034 16.1474 22.7756 16.1532C22.154 16.164 21.7008 16.5735 21.6809 17.1301C21.6604 17.7179 22.0753 18.1552 22.7092 18.2101C22.7754 18.2159 22.8419 18.2187 22.9166 18.222ZM21.5688 44.4522C21.7198 44.4841 21.8709 44.5159 22.0212 44.55V44.5486H32.9526C33.0622 44.5262 33.1718 44.5044 33.2815 44.4826C33.5139 44.4363 33.7463 44.39 33.9775 44.3384C37.983 43.4422 40.7528 39.3575 40.0367 35.3786C39.5445 32.641 38.022 30.6526 35.5102 29.4112C34.4026 28.8641 33.2915 28.3245 32.1756 27.795C31.9812 27.7028 31.9189 27.597 31.9223 27.3882C31.9318 26.78 31.9304 26.1715 31.9289 25.5557C31.9284 25.3285 31.9278 25.1004 31.9278 24.871C31.8853 24.8615 31.8448 24.8519 31.8056 24.8425C31.7298 24.8245 31.6586 24.8076 31.5869 24.7951C30.611 24.6283 29.6573 24.7964 28.6997 24.9652L28.6767 24.9693C27.3151 25.2086 25.9507 25.4405 24.5815 25.6316C24.2433 25.6784 23.8967 25.6663 23.5429 25.654C23.379 25.6483 23.2136 25.6425 23.0467 25.6425C23.0467 25.7905 23.0453 25.9422 23.0439 26.0965C23.0403 26.4822 23.0366 26.8842 23.0542 27.2852C23.0665 27.572 22.981 27.7191 22.7112 27.8452C21.8687 28.2392 21.0333 28.6488 20.1982 29.0583C19.9339 29.1879 19.6698 29.3175 19.4054 29.4465C16.246 30.9888 14.4914 34.1712 14.9111 37.6003C15.2931 40.7249 17.544 43.3507 20.6041 44.2252C20.9215 44.3158 21.2452 44.384 21.5688 44.4522Z" fill="white"/>
</svg>
