<svg width="276" height="103" viewBox="0 0 276 103" fill="none" xmlns="http://www.w3.org/2000/svg">
<g clip-path="url(#clip0_44_102)">
<path fill-rule="evenodd" clip-rule="evenodd" d="M24.0165 21.38H1.68099C0.766667 21.38 0 22.1237 0 23.0378V64.2423C0 65.1563 0.743951 65.9227 1.65827 65.9227H5.91753C6.83185 65.9227 7.5758 65.179 7.59852 64.2423V44.1964H21.3133C22.2277 44.1964 22.9943 43.4527 22.9943 42.516V39.0529C22.9943 38.1389 22.2504 37.3725 21.3133 37.3725H7.62691V28.1188H24.0165C24.9309 28.1188 25.6975 27.3751 25.6975 26.4383V23.0491C25.6975 22.1351 24.9309 21.3914 24.0165 21.3914V21.38Z" fill="white"/>
<path fill-rule="evenodd" clip-rule="evenodd" d="M40.1904 43.1234C43.4104 43.254 45.0289 44.7357 45.0289 47.5913V49.0276H40.1904V53.8759H45.0062V55.4087C45.0062 57.1686 44.6597 58.3551 43.9669 59.0193C43.1378 59.8255 41.8714 60.2683 40.1904 60.3591V66.0533C42.1496 65.7183 43.8193 64.8554 45.2049 63.4702V64.265C45.2049 65.179 45.9489 65.9454 46.8859 65.9454H50.4523C51.3667 65.9454 52.1333 65.2017 52.1333 64.265V47.1655C52.1106 40.5006 48.1523 37.134 40.1904 37.0716V43.1177V43.1234ZM39.9575 37.0716C36.2946 37.0716 33.3244 37.9629 31.0472 39.7455C30.3316 40.3132 30.2067 41.3805 30.7746 42.0958C30.8257 42.1469 30.8711 42.1924 30.9222 42.2435L33.0746 44.3497C33.6709 44.9174 34.6079 44.9685 35.278 44.4746C36.4649 43.5605 37.9528 43.1121 39.7077 43.1121C39.8723 43.1121 40.0314 43.112 40.1904 43.1234V37.0773C40.1109 37.0773 40.037 37.0773 39.9575 37.0773V37.0716ZM40.1904 49.0276H38.2936C35.1247 49.0276 32.6714 49.8167 30.9677 51.429C29.3605 52.9164 28.5654 54.8694 28.5654 57.2935C28.5654 59.9163 29.3548 62.0452 30.9165 63.703C32.5975 65.3834 35.0281 66.2293 38.197 66.2293C38.8899 66.2293 39.5543 66.1725 40.1904 66.0646V60.3705C39.9632 60.3818 39.7247 60.3875 39.4862 60.3875C36.7375 60.3875 35.3746 59.2975 35.3746 57.0948C35.3746 54.8921 36.7091 53.8759 39.3612 53.8759H40.1904V49.0276Z" fill="white"/>
<path fill-rule="evenodd" clip-rule="evenodd" d="M79.0464 38.4852C77.513 37.5201 75.7014 37.0489 73.8955 37.0773C70.8231 37.0773 68.4493 38.0935 66.7172 40.1486V39.087C66.7172 38.1729 65.9733 37.4065 65.0362 37.4065H61.4471C60.5328 37.4065 59.7661 38.1502 59.7661 39.087V64.2536C59.7661 65.1677 60.5101 65.9341 61.4471 65.9341H65.2123C66.1266 65.9341 66.8933 65.1904 66.8933 64.2536V48.7381C66.8933 47.0576 67.3874 45.7178 68.3812 44.7527C69.199 43.9352 70.3348 43.4924 71.499 43.4924C72.4644 43.4924 73.4298 43.7876 74.2249 44.3326C74.895 44.7754 75.7866 44.6789 76.3545 44.1339L79.3474 41.1137C79.9891 40.4722 79.9891 39.4049 79.3474 38.7634C79.2508 38.6385 79.1486 38.5647 79.052 38.4909L79.0464 38.4852Z" fill="white"/>
<path fill-rule="evenodd" clip-rule="evenodd" d="M115.437 37.0716C112.047 37.0716 109.196 38.2865 106.896 40.6822C105.141 38.2808 102.614 37.0716 99.3429 37.0716C96.4977 37.0716 94.1182 38.0594 92.2385 40.018V39.0529C92.2385 38.1389 91.4945 37.3725 90.5575 37.3725H86.9456C86.0313 37.3725 85.2646 38.1162 85.2646 39.0529V64.2196C85.2646 65.1336 86.0086 65.8773 86.9456 65.9H90.7108C91.6251 65.9 92.3918 65.1563 92.3918 64.2196V48.6529C92.3918 46.8703 92.9143 45.5078 93.9251 44.5938C94.7656 43.8274 95.8333 43.4584 97.1451 43.4584C98.3093 43.4073 99.4451 43.8274 100.314 44.5938C101.331 45.5078 101.847 46.8476 101.847 48.6529V64.2196C101.847 65.1336 102.591 65.8773 103.528 65.9H107.294C108.208 65.9 108.975 65.1563 108.975 64.2196V48.528C108.975 46.8192 109.497 45.5078 110.559 44.5938C111.451 43.8501 112.586 43.4584 113.728 43.5038C114.892 43.4527 116.028 43.8728 116.897 44.6449C117.913 45.5589 118.43 46.8987 118.43 48.704V64.2707C118.43 65.1847 119.174 65.9284 120.111 65.9511H123.876C124.791 65.9511 125.557 65.2074 125.557 64.2707V47.7162C125.557 44.4008 124.518 41.7041 122.439 39.6263C120.781 37.9175 118.43 37.0773 115.432 37.0773L115.437 37.0716Z" fill="white"/>
<path fill-rule="evenodd" clip-rule="evenodd" d="M142.895 43.1234C146.104 43.2597 147.722 44.7414 147.722 47.5913V49.0276H142.895V53.8759H147.722V55.4087H147.7C147.7 57.1686 147.353 58.3551 146.66 59.0193C145.837 59.8255 144.57 60.2626 142.895 60.3591V66.0533C144.849 65.7127 146.513 64.8554 147.898 63.4702V64.265C147.898 65.179 148.642 65.9227 149.579 65.9454H153.191C154.105 65.9454 154.872 65.2017 154.872 64.265V47.1655C154.798 40.5006 150.846 37.1397 142.889 37.0716V43.1177L142.895 43.1234ZM142.645 37.0716C138.982 37.0716 136.012 37.9629 133.735 39.7455C133.019 40.3132 132.894 41.3805 133.462 42.0958C133.513 42.1469 133.559 42.1924 133.61 42.2435L135.762 44.3497C136.359 44.9174 137.296 44.9685 137.966 44.4746C139.153 43.5605 140.641 43.1121 142.395 43.1121C142.566 43.1121 142.73 43.112 142.889 43.1234V37.0773C142.804 37.0773 142.725 37.0773 142.64 37.0773L142.645 37.0716ZM142.895 49.0276H140.987C137.818 49.0276 135.365 49.8167 133.661 51.429C132.054 52.9164 131.259 54.8694 131.259 57.2935C131.259 59.9163 132.054 62.0452 133.61 63.703C135.291 65.3834 137.721 66.2293 140.89 66.2293C141.589 66.2293 142.259 66.1725 142.895 66.0646V60.3705C142.662 60.3818 142.424 60.3932 142.18 60.3932C139.431 60.3932 138.068 59.3032 138.068 57.1005C138.068 54.8978 139.402 53.8815 142.077 53.8815H142.895V49.0333V49.0276Z" fill="white"/>
<path fill-rule="evenodd" clip-rule="evenodd" d="M194.069 74.569L176.912 51.06L188.447 40.2678C189.117 39.649 189.162 38.5874 188.52 37.8948C188.197 37.5485 187.754 37.3725 187.305 37.3725H181.785C181.365 37.3725 180.945 37.5485 180.644 37.8153L169.552 48.1874V15.5894C169.552 14.6753 168.809 13.9089 167.871 13.9089H164.106C163.192 13.9089 162.425 14.6526 162.425 15.5894V64.2423C162.425 65.1563 163.169 65.9227 164.106 65.9227H167.871C168.786 65.9227 169.552 65.179 169.552 64.2423V57.9293L171.682 55.948L188.344 78.7644C188.889 79.5081 189.929 79.6784 190.673 79.1334L193.717 76.9079C194.461 76.3629 194.631 75.324 194.063 74.5576L194.069 74.569Z" fill="white"/>
<path fill-rule="evenodd" clip-rule="evenodd" d="M166.014 103C179.655 103.023 192.751 97.6068 202.406 87.9273C203.047 87.2574 203.047 86.2185 202.383 85.577L202.36 85.5542L199.663 83.0279C199.021 82.4091 198.004 82.4318 197.363 83.0506C180.036 100.275 152.033 100.275 134.678 83.0506C134.036 82.4318 133.019 82.4091 132.378 83.0279L129.68 85.577C129.01 86.1958 128.965 87.2574 129.584 87.9273L129.606 87.95C139.283 97.6011 152.385 103.023 166.02 102.994L166.014 103Z" fill="white"/>
<path fill-rule="evenodd" clip-rule="evenodd" d="M166.014 1.00877e-05C179.655 -0.0226984 192.751 5.39328 202.406 15.0728C203.047 15.7427 203.047 16.7816 202.383 17.4231L202.36 17.4458L199.663 19.9721C199.021 20.5909 198.004 20.5682 197.363 19.9494C180.036 2.72503 152.033 2.72503 134.678 19.9494C134.036 20.5682 133.019 20.5909 132.378 19.9721L129.68 17.4458C129.01 16.827 128.965 15.7654 129.584 15.0955L129.606 15.0728C139.278 5.39328 152.373 -0.0226984 166.014 1.00877e-05Z" fill="white"/>
<path fill-rule="evenodd" clip-rule="evenodd" d="M24.0165 21.38H1.68099C0.766667 21.38 0 22.1237 0 23.0378V64.2423C0 65.1563 0.743951 65.9227 1.65827 65.9227H5.91753C6.83185 65.9227 7.5758 65.179 7.59852 64.2423V44.1964H21.3133C22.2277 44.1964 22.9943 43.4527 22.9943 42.516V39.0529C22.9943 38.1389 22.2504 37.3725 21.3133 37.3725H7.62691V28.1188H24.0165C24.9309 28.1188 25.6975 27.3751 25.6975 26.4383V23.0491C25.6975 22.1351 24.9309 21.3914 24.0165 21.3914V21.38Z" fill="#3E4952"/>
<path fill-rule="evenodd" clip-rule="evenodd" d="M40.1904 43.1234C43.4104 43.254 45.0289 44.7357 45.0289 47.5913V49.0276H40.1904V53.8759H45.0062V55.4087C45.0062 57.1686 44.6597 58.3551 43.9669 59.0193C43.1378 59.8255 41.8714 60.2683 40.1904 60.3591V66.0533C42.1496 65.7183 43.8193 64.8554 45.2049 63.4702V64.265C45.2049 65.179 45.9489 65.9454 46.8859 65.9454H50.4523C51.3667 65.9454 52.1333 65.2017 52.1333 64.265V47.1655C52.1106 40.5006 48.1523 37.134 40.1904 37.0716V43.1177V43.1234ZM39.9575 37.0716C36.2946 37.0716 33.3244 37.9629 31.0472 39.7455C30.3316 40.3132 30.2067 41.3805 30.7746 42.0958C30.8257 42.1469 30.8711 42.1924 30.9222 42.2435L33.0746 44.3497C33.6709 44.9174 34.6079 44.9685 35.278 44.4746C36.4649 43.5605 37.9528 43.1121 39.7077 43.1121C39.8723 43.1121 40.0314 43.112 40.1904 43.1234V37.0773C40.1109 37.0773 40.037 37.0773 39.9575 37.0773V37.0716ZM40.1904 49.0276H38.2936C35.1247 49.0276 32.6714 49.8167 30.9677 51.429C29.3605 52.9164 28.5654 54.8694 28.5654 57.2935C28.5654 59.9163 29.3548 62.0452 30.9165 63.703C32.5975 65.3834 35.0281 66.2293 38.197 66.2293C38.8899 66.2293 39.5543 66.1725 40.1904 66.0646V60.3705C39.9632 60.3818 39.7247 60.3875 39.4862 60.3875C36.7375 60.3875 35.3746 59.2975 35.3746 57.0948C35.3746 54.8921 36.7091 53.8759 39.3612 53.8759H40.1904V49.0276Z" fill="#3E4952"/>
<path fill-rule="evenodd" clip-rule="evenodd" d="M79.0464 38.4852C77.513 37.5201 75.7014 37.0489 73.8955 37.0773C70.8231 37.0773 68.4493 38.0935 66.7172 40.1486V39.087C66.7172 38.1729 65.9733 37.4065 65.0362 37.4065H61.4471C60.5328 37.4065 59.7661 38.1502 59.7661 39.087V64.2536C59.7661 65.1677 60.5101 65.9341 61.4471 65.9341H65.2123C66.1266 65.9341 66.8933 65.1904 66.8933 64.2536V48.7381C66.8933 47.0576 67.3874 45.7178 68.3812 44.7527C69.199 43.9352 70.3348 43.4924 71.499 43.4924C72.4644 43.4924 73.4298 43.7876 74.2249 44.3326C74.895 44.7754 75.7866 44.6789 76.3545 44.1339L79.3474 41.1137C79.9891 40.4722 79.9891 39.4049 79.3474 38.7634C79.2508 38.6385 79.1486 38.5647 79.052 38.4909L79.0464 38.4852Z" fill="#3E4952"/>
<path fill-rule="evenodd" clip-rule="evenodd" d="M115.437 37.0716C112.047 37.0716 109.196 38.2865 106.896 40.6822C105.141 38.2808 102.614 37.0716 99.3429 37.0716C96.4977 37.0716 94.1182 38.0594 92.2385 40.018V39.0529C92.2385 38.1389 91.4945 37.3725 90.5575 37.3725H86.9456C86.0313 37.3725 85.2646 38.1162 85.2646 39.0529V64.2196C85.2646 65.1336 86.0086 65.8773 86.9456 65.9H90.7108C91.6251 65.9 92.3918 65.1563 92.3918 64.2196V48.6529C92.3918 46.8703 92.9143 45.5078 93.9251 44.5938C94.7656 43.8274 95.8333 43.4584 97.1451 43.4584C98.3093 43.4073 99.4451 43.8274 100.314 44.5938C101.331 45.5078 101.847 46.8476 101.847 48.6529V64.2196C101.847 65.1336 102.591 65.8773 103.528 65.9H107.294C108.208 65.9 108.975 65.1563 108.975 64.2196V48.528C108.975 46.8192 109.497 45.5078 110.559 44.5938C111.451 43.8501 112.586 43.4584 113.728 43.5038C114.892 43.4527 116.028 43.8728 116.897 44.6449C117.913 45.5589 118.43 46.8987 118.43 48.704V64.2707C118.43 65.1847 119.174 65.9284 120.111 65.9511H123.876C124.791 65.9511 125.557 65.2074 125.557 64.2707V47.7162C125.557 44.4008 124.518 41.7041 122.439 39.6263C120.781 37.9175 118.43 37.0773 115.432 37.0773L115.437 37.0716Z" fill="#3E4952"/>
<path fill-rule="evenodd" clip-rule="evenodd" d="M142.895 43.1234C146.104 43.2597 147.722 44.7414 147.722 47.5913V49.0276H142.895V53.8759H147.722V55.4087H147.7C147.7 57.1686 147.353 58.3551 146.66 59.0193C145.837 59.8255 144.57 60.2626 142.895 60.3591V66.0533C144.849 65.7127 146.513 64.8554 147.898 63.4702V64.265C147.898 65.179 148.642 65.9227 149.579 65.9454H153.191C154.105 65.9454 154.872 65.2017 154.872 64.265V47.1655C154.798 40.5006 150.846 37.1397 142.889 37.0716V43.1177L142.895 43.1234ZM142.645 37.0716C138.982 37.0716 136.012 37.9629 133.735 39.7455C133.019 40.3132 132.894 41.3805 133.462 42.0958C133.513 42.1469 133.559 42.1924 133.61 42.2435L135.762 44.3497C136.359 44.9174 137.296 44.9685 137.966 44.4746C139.153 43.5605 140.641 43.1121 142.395 43.1121C142.566 43.1121 142.73 43.112 142.889 43.1234V37.0773C142.804 37.0773 142.725 37.0773 142.64 37.0773L142.645 37.0716ZM142.895 49.0276H140.987C137.818 49.0276 135.365 49.8167 133.661 51.429C132.054 52.9164 131.259 54.8694 131.259 57.2935C131.259 59.9163 132.054 62.0452 133.61 63.703C135.291 65.3834 137.721 66.2293 140.89 66.2293C141.589 66.2293 142.259 66.1725 142.895 66.0646V60.3705C142.662 60.3818 142.424 60.3932 142.18 60.3932C139.431 60.3932 138.068 59.3032 138.068 57.1005C138.068 54.8978 139.402 53.8815 142.077 53.8815H142.895V49.0333V49.0276Z" fill="#3E4952"/>
<path fill-rule="evenodd" clip-rule="evenodd" d="M194.069 74.569L176.912 51.06L188.447 40.2678C189.117 39.649 189.162 38.5874 188.52 37.8948C188.197 37.5485 187.754 37.3725 187.305 37.3725H181.785C181.365 37.3725 180.945 37.5485 180.644 37.8153L169.552 48.1874V15.5894C169.552 14.6753 168.809 13.9089 167.871 13.9089H164.106C163.192 13.9089 162.425 14.6526 162.425 15.5894V64.2423C162.425 65.1563 163.169 65.9227 164.106 65.9227H167.871C168.786 65.9227 169.552 65.179 169.552 64.2423V57.9293L171.682 55.948L188.344 78.7644C188.889 79.5081 189.929 79.6784 190.673 79.1334L193.717 76.9079C194.461 76.3629 194.631 75.324 194.063 74.5576L194.069 74.569Z" fill="#3E4952"/>
<path fill-rule="evenodd" clip-rule="evenodd" d="M166.014 103C179.655 103.023 192.751 97.6068 202.406 87.9273C203.047 87.2574 203.047 86.2185 202.383 85.577L202.36 85.5542L199.663 83.0279C199.021 82.4091 198.004 82.4318 197.363 83.0506C180.036 100.275 152.033 100.275 134.678 83.0506C134.036 82.4318 133.019 82.4091 132.378 83.0279L129.68 85.577C129.01 86.1958 128.965 87.2574 129.584 87.9273L129.606 87.95C139.283 97.6011 152.385 103.023 166.02 102.994L166.014 103Z" fill="#00A3E0"/>
<path fill-rule="evenodd" clip-rule="evenodd" d="M166.014 1.00877e-05C179.655 -0.0226984 192.751 5.39328 202.406 15.0728C203.047 15.7427 203.047 16.7816 202.383 17.4231L202.36 17.4458L199.663 19.9721C199.021 20.5909 198.004 20.5682 197.363 19.9494C180.036 2.72503 152.033 2.72503 134.678 19.9494C134.036 20.5682 133.019 20.5909 132.378 19.9721L129.68 17.4458C129.01 16.827 128.965 15.7654 129.584 15.0955L129.606 15.0728C139.278 5.39328 152.373 -0.0226984 166.014 1.00877e-05Z" fill="#00A3E0"/>
<path d="M243.528 62.3404V59.5984H242.25L240.875 62.3404H239.183L240.807 59.0931C240.024 58.6617 239.632 57.9918 239.632 57.0834C239.632 56.3397 239.876 55.7607 240.364 55.3519C240.853 54.9432 241.534 54.7388 242.409 54.7274H245.101V62.3348H243.528V62.3404ZM241.199 57.197C241.199 57.6228 241.301 57.9293 241.511 58.1223C241.716 58.3154 242.028 58.4119 242.443 58.4119H243.528V56.0048H242.443C241.614 56.0048 241.199 56.4022 241.199 57.2027V57.197ZM248.877 59.2294H247.974V62.3404H246.407V54.7331H247.974V57.7817H248.69L250.552 54.7331H252.466L250.121 58.3324L252.716 62.3404H250.842L248.883 59.2294H248.877ZM259.565 58.7071C259.565 59.4565 259.434 60.115 259.168 60.6771C258.906 61.2391 258.526 61.6762 258.032 61.9828C257.538 62.2894 256.975 62.4426 256.334 62.4426C255.692 62.4426 255.141 62.2894 254.647 61.9885C254.153 61.6876 253.767 61.2504 253.5 60.6884C253.227 60.1264 253.091 59.4792 253.085 58.7468V58.3721C253.085 57.6228 253.222 56.9642 253.489 56.3965C253.761 55.8231 254.142 55.386 254.636 55.0851C255.13 54.7785 255.692 54.6309 256.328 54.6309C256.964 54.6309 257.526 54.7842 258.02 55.0851C258.514 55.3917 258.895 55.8288 259.168 56.3965C259.434 56.9642 259.571 57.6228 259.571 58.3721V58.7128L259.565 58.7071ZM257.975 58.3608C257.975 57.566 257.833 56.9585 257.549 56.5441C257.265 56.1297 256.856 55.9196 256.328 55.9196C255.8 55.9196 255.397 56.124 255.107 56.5328C254.823 56.9415 254.675 57.5433 254.675 58.3324V58.7014C254.675 59.4792 254.817 60.081 255.101 60.5124C255.385 60.9382 255.8 61.1539 256.334 61.1539C256.868 61.1539 257.265 60.9496 257.549 60.5351C257.833 60.1207 257.975 59.5189 257.975 58.7298V58.3608ZM266.681 59.8028C266.618 60.6203 266.317 61.2675 265.772 61.7387C265.227 62.2099 264.511 62.4426 263.614 62.4426C262.637 62.4426 261.871 62.1134 261.309 61.4605C260.752 60.802 260.468 59.8993 260.468 58.7582V58.2927C260.468 57.5603 260.599 56.9131 260.854 56.3568C261.11 55.8004 261.479 55.3689 261.956 55.0737C262.433 54.7785 262.995 54.6252 263.626 54.6252C264.506 54.6252 265.21 54.858 265.75 55.3292C266.289 55.8004 266.596 56.459 266.681 57.3105H265.113C265.074 56.8223 264.937 56.4646 264.705 56.2432C264.472 56.0218 264.114 55.9139 263.631 55.9139C263.109 55.9139 262.717 56.1013 262.461 56.476C262.2 56.8507 262.07 57.4297 262.064 58.2189V58.7922C262.064 59.6154 262.189 60.2172 262.439 60.5976C262.689 60.9779 263.08 61.1653 263.62 61.1653C264.103 61.1653 264.466 61.0517 264.705 60.836C264.943 60.6146 265.079 60.274 265.113 59.8085H266.681V59.8028ZM273.439 55.9991H271.105V62.3404H269.537V55.9991H267.237V54.7274H273.439V55.9991ZM276 62.3404H274.433V54.7331H276V62.3404Z" fill="#3E4952"/>
<path d="M240.728 47.9547V50.6343H239.16V43.0269H242.13C242.704 43.0269 243.204 43.1348 243.635 43.3392C244.067 43.5492 244.402 43.8444 244.635 44.2305C244.868 44.6165 244.987 45.0537 244.987 45.5476C244.987 46.2913 244.731 46.8817 244.22 47.3132C243.709 47.7446 243.005 47.9603 242.102 47.9603H240.728V47.9547ZM240.728 46.683H242.13C242.545 46.683 242.863 46.5865 243.079 46.3878C243.294 46.1948 243.402 45.9109 243.402 45.5532C243.402 45.1956 243.294 44.8777 243.073 44.6506C242.852 44.4178 242.551 44.3043 242.164 44.2929H240.728V46.683ZM252.318 47.0066C252.318 47.756 252.188 48.4145 251.921 48.9766C251.66 49.5386 251.279 49.9757 250.785 50.2823C250.291 50.5889 249.729 50.7421 249.087 50.7421C248.445 50.7421 247.894 50.5889 247.4 50.288C246.906 49.9871 246.52 49.5499 246.253 48.9879C245.981 48.4259 245.844 47.7787 245.839 47.0463V46.6716C245.839 45.9223 245.975 45.2637 246.242 44.696C246.514 44.1226 246.895 43.6855 247.389 43.3846C247.883 43.078 248.445 42.9304 249.081 42.9304C249.717 42.9304 250.28 43.0837 250.774 43.3846C251.268 43.6912 251.648 44.1283 251.921 44.696C252.188 45.2637 252.324 45.9223 252.324 46.6716V47.0123L252.318 47.0066ZM250.728 46.6603C250.728 45.8655 250.586 45.258 250.302 44.8436C250.018 44.4292 249.61 44.2191 249.081 44.2191C248.553 44.2191 248.15 44.4235 247.86 44.8323C247.576 45.241 247.429 45.8428 247.429 46.6319V47.0009C247.429 47.7787 247.571 48.3805 247.855 48.8119C248.139 49.2377 248.553 49.4534 249.087 49.4534C249.621 49.4534 250.018 49.2491 250.302 48.8346C250.586 48.4202 250.728 47.8184 250.728 47.0293V46.6603ZM255.936 47.5232H255.033V50.6343H253.466V43.0269H255.033V46.0755H255.749L257.611 43.0269H259.525L257.18 46.6262L259.775 50.6343H257.901L255.942 47.5232H255.936ZM262.041 50.6343H260.473V43.0269H262.041V50.6343ZM263.495 50.6343V43.0269H266.158C267.084 43.0269 267.782 43.2029 268.259 43.5549C268.736 43.9126 268.975 44.4292 268.975 45.1104C268.975 45.4851 268.878 45.8087 268.685 46.0926C268.492 46.3764 268.225 46.5865 267.885 46.7171C268.276 46.8136 268.583 47.0123 268.805 47.3075C269.032 47.6027 269.14 47.966 269.14 48.3975C269.14 49.1298 268.907 49.6862 268.441 50.0609C267.975 50.4356 267.305 50.6286 266.442 50.6343H263.483H263.495ZM265.062 47.3245V49.3796H266.408C266.777 49.3796 267.067 49.2945 267.271 49.1185C267.476 48.9425 267.584 48.6984 267.584 48.3861C267.584 47.6878 267.226 47.3359 266.499 47.3245H265.062ZM265.062 46.2118H266.221C267.01 46.1948 267.408 45.8825 267.408 45.2637C267.408 44.9174 267.305 44.6676 267.107 44.52C266.908 44.3667 266.59 44.2929 266.158 44.2929H265.062V46.2118Z" fill="#3E4952"/>
<path fill-rule="evenodd" clip-rule="evenodd" d="M221.873 58.673V45.4567C221.873 44.0034 222.719 42.5046 223.815 41.5792C224.957 40.6141 226.655 39.9215 228.165 39.9215C229.545 39.9215 230.119 40.0123 231.408 40.4892C231.868 40.6595 232.544 41.0683 232.919 41.3862C234.418 42.6522 235.151 43.9182 235.151 45.9052V60.4046C235.151 61.6876 234.816 62.7946 234.043 63.8222C233.436 64.6283 232.328 65.4629 231.391 65.8319C230.216 66.2974 229.426 66.3826 228.171 66.3826C226.661 66.3826 224.963 65.69 223.821 64.7249C221.703 62.9309 221.879 61.171 221.879 58.6787L221.873 58.673ZM224.679 45.9393V49.6407H225.547C225.547 48.721 225.445 46.0017 225.729 45.258C225.809 45.0536 225.9 44.8947 226.013 44.7073C226.138 44.5029 226.422 44.1964 226.626 44.0431C227.121 43.6911 227.433 43.5038 228.143 43.3618C228.898 43.2086 228.853 43.6457 228.853 42.5387C228.063 42.5387 227.376 42.6976 226.774 42.9928C226.655 43.0496 226.575 43.1064 226.462 43.1688C226.308 43.254 226.303 43.2597 226.166 43.3618C225.735 43.6911 226.081 43.3789 225.672 43.782C225.553 43.8955 225.547 43.8898 225.44 44.0261C225.025 44.5427 224.673 45.2353 224.673 45.9393H224.679ZM215.371 60.3478V56.6463H214.502C214.502 57.566 214.604 60.2853 214.32 61.029C214.241 61.2334 214.15 61.3924 214.036 61.5797C213.911 61.7841 213.627 62.0907 213.423 62.2439C212.929 62.5959 212.616 62.7833 211.906 62.9252C211.151 63.0785 211.197 62.6413 211.197 63.7484C211.986 63.7484 212.673 63.5894 213.275 63.2942C213.394 63.2374 213.474 63.1807 213.587 63.1182C213.741 63.0331 213.746 63.0274 213.883 62.9252C214.314 62.5959 213.968 62.9082 214.377 62.5051C214.496 62.3916 214.502 62.3972 214.61 62.261C215.024 61.7444 215.376 61.0518 215.376 60.3478H215.371ZM200.974 66.235H198.822V42.6976L191.712 45.3375V43.3278L200.617 40.0294H200.974V66.2406V66.235ZM218.176 47.614V60.8303C218.176 62.2837 217.33 63.7825 216.234 64.7078C215.092 65.6729 213.394 66.3655 211.884 66.3655C210.504 66.3655 209.93 66.2747 208.641 65.7978C208.181 65.6275 207.505 65.2188 207.13 64.9008C205.631 63.6348 204.899 62.3688 204.899 60.3819V45.8825C204.899 44.5995 205.234 43.4924 206.006 42.4649C206.614 41.6587 207.721 40.8242 208.658 40.4552C209.834 39.9896 210.623 39.9045 211.878 39.9045C213.389 39.9045 215.081 40.5971 216.228 41.5622C218.346 43.3562 218.17 45.1161 218.17 47.6083L218.176 47.614ZM216.098 54.1427H207.891V52.1444H216.098V47.1996C216.109 46.3083 216.126 45.0763 215.819 44.4064C215.467 43.6457 215.053 43.1859 214.366 42.709C214.138 42.55 213.911 42.4308 213.661 42.3229C211.503 41.3976 208.357 42.0164 207.318 44.2929C207.136 44.6903 207.04 45.1161 207.04 45.5532V60.7452C207.04 61.8806 207.642 62.6697 208.465 63.3794C209.101 63.9244 210.015 64.248 210.839 64.3558C211.026 64.3785 211.219 64.3785 211.412 64.3956C211.452 64.3956 211.509 64.4069 211.549 64.4069C211.651 64.4013 211.753 64.3842 211.861 64.3785C212.917 64.3275 214.258 63.8903 214.979 63.0955C215.376 62.6527 215.592 62.4086 215.836 61.8579C216.041 61.3924 216.098 60.66 216.098 60.1491V54.1427ZM223.952 52.15H232.158V54.1484H223.952V59.0931C223.94 59.9845 223.923 61.2164 224.23 61.8863C224.582 62.647 224.997 63.1069 225.684 63.5837C225.911 63.7427 226.138 63.8619 226.388 63.9698C228.546 64.8952 231.692 64.2764 232.731 61.9998C232.913 61.6024 233.004 61.1766 233.004 60.7395V45.5475C233.004 44.4121 232.402 43.623 231.579 42.9134C230.943 42.3683 230.028 42.0448 229.205 41.9369C229.017 41.9142 228.824 41.9142 228.631 41.8972C228.591 41.8972 228.535 41.8858 228.495 41.8858C228.393 41.8915 228.29 41.9085 228.183 41.9142C227.126 41.9653 225.786 42.4024 225.065 43.1972C224.667 43.64 224.451 43.8841 224.207 44.4348C224.003 44.9003 223.946 45.6327 223.946 46.1436V52.15H223.952Z" fill="#00A3E0"/>
</g>
<defs>
<clipPath id="clip0_44_102">
<rect width="276" height="103" fill="white"/>
</clipPath>
</defs>
</svg>
