<svg width="609" height="192" viewBox="0 0 609 192" fill="none" xmlns="http://www.w3.org/2000/svg">
<path d="M373.945 161.915V142.126H364.723L354.805 161.915H342.592L354.313 138.48C348.657 135.366 345.829 130.531 345.829 123.976C345.829 118.609 347.592 114.43 351.116 111.48C354.641 108.53 359.559 107.055 365.871 106.973H385.297V161.874H373.945V161.915ZM357.141 124.795C357.141 127.868 357.879 130.081 359.395 131.474C360.871 132.867 363.125 133.563 366.117 133.563H373.945V116.192H366.117C360.133 116.192 357.141 119.06 357.141 124.836V124.795ZM412.552 139.463H406.035V161.915H394.724V107.014H406.035V129.015H411.199L424.642 107.014H438.453L421.527 132.99L440.257 161.915H426.732L412.593 139.463H412.552ZM489.684 135.694C489.684 141.102 488.741 145.854 486.815 149.91C484.929 153.966 482.183 157.121 478.618 159.334C475.052 161.546 470.995 162.652 466.364 162.652C461.732 162.652 457.757 161.546 454.191 159.374C450.626 157.203 447.839 154.048 445.913 149.992C443.945 145.936 442.962 141.266 442.921 135.98V133.276C442.921 127.868 443.904 123.116 445.831 119.019C447.798 114.881 450.544 111.726 454.109 109.554C457.675 107.342 461.732 106.277 466.323 106.277C470.913 106.277 474.97 107.383 478.536 109.554C482.102 111.767 484.847 114.922 486.815 119.019C488.741 123.116 489.725 127.868 489.725 133.276V135.735L489.684 135.694ZM478.208 133.194C478.208 127.459 477.183 123.075 475.134 120.084C473.085 117.093 470.134 115.577 466.323 115.577C462.511 115.577 459.601 117.052 457.511 120.002C455.462 122.952 454.396 127.295 454.396 132.99V135.653C454.396 141.266 455.421 145.608 457.47 148.722C459.519 151.795 462.511 153.352 466.364 153.352C470.216 153.352 473.085 151.877 475.134 148.886C477.183 145.895 478.208 141.552 478.208 135.857V133.194ZM541.037 143.601C540.586 149.501 538.414 154.171 534.479 157.572C530.545 160.972 525.381 162.652 518.905 162.652C511.856 162.652 506.323 160.276 502.266 155.564C498.249 150.812 496.2 144.297 496.2 136.062V132.703C496.2 127.418 497.143 122.747 498.987 118.732C500.831 114.717 503.495 111.603 506.938 109.473C510.38 107.342 514.438 106.236 518.987 106.236C525.34 106.236 530.422 107.916 534.315 111.316C538.209 114.717 540.422 119.469 541.037 125.615H529.725C529.438 122.091 528.454 119.51 526.774 117.912C525.094 116.315 522.512 115.536 519.028 115.536C515.258 115.536 512.43 116.888 510.585 119.592C508.7 122.296 507.758 126.475 507.717 132.17V136.308C507.717 142.249 508.618 146.592 510.421 149.337C512.225 152.082 515.053 153.434 518.946 153.434C522.43 153.434 525.053 152.614 526.774 151.057C528.495 149.46 529.479 147.001 529.725 143.642H541.037V143.601ZM589.808 116.151H572.963V161.915H561.652V116.151H545.053V106.973H589.808V116.151ZM608.291 161.915H596.98V107.014H608.291V161.915Z" fill="#3E4952"/>
<path d="M353.734 58.096V77.434H342.423V22.5336H363.857C367.997 22.5336 371.604 23.3121 374.718 24.787C377.833 26.3029 380.251 28.4334 381.931 31.2194C383.612 34.0054 384.473 37.1601 384.473 40.7245C384.473 46.0917 382.628 50.3525 378.94 53.4663C375.251 56.5801 370.169 58.137 363.653 58.137H353.734V58.096ZM353.734 48.9186H363.857C366.849 48.9186 369.144 48.2221 370.702 46.7881C372.259 45.3951 373.038 43.3466 373.038 40.7655C373.038 38.1843 372.259 35.89 370.661 34.2512C369.062 32.5714 366.89 31.752 364.103 31.67H353.734V48.9186ZM437.383 51.2539C437.383 56.662 436.44 61.4146 434.514 65.4706C432.629 69.5267 429.883 72.6814 426.317 74.8938C422.752 77.1063 418.694 78.2124 414.063 78.2124C409.432 78.2124 405.456 77.1063 401.891 74.9348C398.325 72.7634 395.538 69.6087 393.612 65.5526C391.645 61.4965 390.661 56.8259 390.62 51.5407V48.8367C390.62 43.4286 391.604 38.676 393.53 34.579C395.497 30.441 398.243 27.2862 401.809 25.1148C405.374 22.9024 409.432 21.8372 414.022 21.8372C418.612 21.8372 422.67 22.9433 426.235 25.1148C429.801 27.3272 432.547 30.4819 434.514 34.579C436.44 38.676 437.424 43.4286 437.424 48.8367V51.2949L437.383 51.2539ZM425.907 48.7547C425.907 43.0189 424.883 38.635 422.834 35.6442C420.784 32.6533 417.834 31.1374 414.022 31.1374C410.211 31.1374 407.301 32.6124 405.21 35.5622C403.161 38.5121 402.096 42.855 402.096 48.5499V51.2129C402.096 56.8259 403.12 61.1688 405.169 64.2825C407.219 67.3553 410.21 68.9122 414.063 68.9122C417.915 68.9122 420.784 67.4372 422.834 64.4464C424.883 61.4555 425.907 57.1127 425.907 51.4178V48.7547ZM463.49 54.9822H456.973V77.434H445.662V22.5336H456.973V44.5348H462.137L475.58 22.5336H489.392L472.465 48.5089L491.195 77.434H477.67L463.531 54.9822H463.49ZM507.548 77.434H496.236V22.5336H507.548V77.434ZM518.04 77.434V22.5336H537.261C543.942 22.5336 548.983 23.8037 552.425 26.3439C555.868 28.925 557.589 32.6533 557.589 37.5698C557.589 40.2738 556.892 42.6092 555.499 44.6577C554.106 46.7062 552.179 48.2221 549.72 49.1644C552.548 49.8609 554.761 51.2949 556.36 53.4254C557.999 55.5558 558.778 58.1779 558.778 61.2917C558.778 66.5769 557.097 70.592 553.737 73.296C550.376 76 545.54 77.3931 539.31 77.434H517.958H518.04ZM529.351 53.5483V68.3796H539.064C541.728 68.3796 543.819 67.765 545.294 66.4949C546.769 65.2248 547.548 63.4631 547.548 61.2097C547.548 56.1704 544.966 53.6302 539.72 53.5483H529.351ZM529.351 45.5181H537.712C543.409 45.3951 546.278 43.1418 546.278 38.676C546.278 36.1768 545.54 34.3741 544.105 33.3089C542.671 32.2027 540.376 31.67 537.261 31.67H529.351V45.5181Z" fill="#3E4952"/>
<path fill-rule="evenodd" clip-rule="evenodd" d="M217.666 135.448V40.0691C217.666 29.5806 223.773 18.7644 231.683 12.0863C239.921 5.12129 252.175 0.122906 263.077 0.122906C273.036 0.122906 277.175 0.778433 286.479 4.21995C289.798 5.44906 294.676 8.39894 297.381 10.6933C308.2 19.8297 313.487 28.9661 313.487 43.3057V147.944C313.487 157.204 311.069 165.193 305.495 172.608C301.11 178.426 293.118 184.449 286.356 187.112C277.872 190.471 272.175 191.086 263.118 191.086C252.216 191.086 239.962 186.088 231.724 179.123C216.437 166.176 217.708 153.475 217.708 135.489L217.666 135.448ZM237.913 43.5515V70.2643H244.183C244.183 63.6271 243.445 44.0022 245.495 38.6351C246.068 37.1602 246.724 36.013 247.544 34.661C248.446 33.186 250.495 30.9736 251.97 29.8674C255.536 27.3273 257.79 25.9752 262.913 24.951C268.364 23.8448 268.036 26.9995 268.036 19.0103C262.339 19.0103 257.38 20.1575 253.036 22.2879C252.175 22.6976 251.601 23.1073 250.782 23.558C249.675 24.1725 249.634 24.2135 248.65 24.951C245.536 27.3273 248.036 25.0739 245.085 27.9828C244.224 28.8022 244.183 28.7612 243.404 29.7445C240.413 33.4728 237.872 38.4712 237.872 43.5515H237.913ZM170.74 147.535V120.822H164.469C164.469 127.459 165.207 147.084 163.158 152.451C162.584 153.926 161.928 155.073 161.109 156.425C160.207 157.9 158.158 160.112 156.682 161.219C153.117 163.759 150.862 165.111 145.739 166.135C140.289 167.241 140.616 164.087 140.616 172.076C146.313 172.076 151.272 170.929 155.617 168.798C156.477 168.388 157.051 167.979 157.871 167.528C158.977 166.913 159.018 166.873 160.002 166.135C163.117 163.759 160.617 166.012 163.567 163.103C164.428 162.284 164.469 162.325 165.248 161.342C168.24 157.613 170.781 152.615 170.781 147.535H170.74ZM66.8451 190.021H51.3121V20.1574L0 39.2087V24.7052L64.2631 0.901354H66.8451V190.062V190.021ZM190.986 55.6378V151.017C190.986 161.505 184.879 172.322 176.969 179C168.732 185.965 156.477 190.963 145.576 190.963C135.616 190.963 131.477 190.308 122.174 186.866C118.854 185.637 113.977 182.687 111.272 180.393C100.452 171.256 95.165 162.12 95.165 147.78V43.1418C95.165 33.8825 97.5831 25.8933 103.157 18.4777C107.542 12.6599 115.534 6.63721 122.297 3.97414C130.78 0.614561 136.477 0 145.534 0C156.436 0 168.65 4.99838 176.928 11.9634C192.215 24.91 190.945 37.6108 190.945 55.5969L190.986 55.6378ZM175.986 102.754H116.764V88.3322H175.986V52.647C176.068 46.2146 176.191 37.3241 173.977 32.4895C171.436 26.9995 168.445 23.6809 163.486 20.2394C161.846 19.0922 160.207 18.2318 158.404 17.4534C142.83 10.7752 120.124 15.241 112.624 31.6701C111.313 34.538 110.616 37.6108 110.616 40.7656V150.402C110.616 158.596 114.96 164.291 120.903 169.413C125.493 173.346 132.092 175.681 138.034 176.46C139.387 176.623 140.78 176.623 142.174 176.746C142.461 176.746 142.871 176.828 143.157 176.828C143.895 176.787 144.633 176.664 145.412 176.623C153.035 176.255 162.707 173.1 167.912 167.364C170.781 164.168 172.338 162.407 174.1 158.433C175.576 155.073 175.986 149.788 175.986 146.101V102.754ZM232.667 88.3732H291.889V102.795H232.667V138.48C232.585 144.912 232.462 153.803 234.675 158.637C237.216 164.128 240.208 167.446 245.167 170.888C246.806 172.035 248.446 172.895 250.249 173.674C265.823 180.352 288.528 175.886 296.028 159.457C297.339 156.589 297.995 153.516 297.995 150.361V40.7246C297.995 32.5305 293.651 26.8356 287.708 21.7143C283.118 17.7811 276.52 15.4459 270.577 14.6674C269.224 14.5035 267.831 14.5035 266.438 14.3806C266.151 14.3806 265.741 14.2987 265.454 14.2987C264.716 14.3396 263.978 14.4626 263.2 14.5035C255.577 14.8723 245.904 18.027 240.7 23.7628C237.831 26.9585 236.273 28.7202 234.511 32.6944C233.035 36.054 232.626 41.3391 232.626 45.0265V88.3732H232.667Z" fill="#00A3E0"/>
</svg>
