<?xml version="1.0" encoding="utf-8"?>
<!-- Generator: Adobe Illustrator 23.0.0, SVG Export Plug-In . SVG Version: 6.00 Build 0)  -->
<svg version="1.1" id="Слой_1" xmlns="http://www.w3.org/2000/svg" xmlns:xlink="http://www.w3.org/1999/xlink" x="0px" y="0px"
	 viewBox="0 0 609 192" style="enable-background:new 0 0 609 192;" xml:space="preserve">
<style type="text/css">
	.st0{fill-rule:evenodd;clip-rule:evenodd;fill:#00A3E0;}
	.st1{fill:#3E4952;}
</style>
<path class="st0" d="M199.3,25.8c2.7-0.7,5.3-1,7.9-1c7.8,0,11.1,0.5,18.4,3.2c2.6,1,6.4,3.3,8.6,5.1c8.5,7.2,12.7,14.4,12.7,25.7
	v82.4c0,7.3-1.9,13.6-6.3,19.4c-3.4,4.6-9.7,9.3-15.1,11.4c-6.7,2.6-11.2,3.1-18.3,3.1c-2.6,0-5.3-0.4-7.9-1v-11.9
	c12.1,4,28.3,0.2,33.9-12c1-2.3,1.6-4.7,1.6-7.1V56.8c0-6.4-3.4-10.9-8.1-15c-3.6-3.1-8.8-4.9-13.5-5.6c-1.1-0.1-2.2-0.1-3.3-0.2
	c-0.2,0-0.5-0.1-0.8-0.1c-0.6,0-1.2,0.1-1.8,0.2c-2.5,0.1-5.4,0.6-8.1,1.5V25.8L199.3,25.8z M199.3,105.6h30.6V94.3h-30.6V105.6
	L199.3,105.6z M199.3,47.6c2.4-1.6,4.2-2.6,7.8-3.3c4.3-0.9,4,1.6,4-4.7c-4.5,0-8.4,0.9-11.8,2.6l-0.1,0V47.6z M171.5,131.3V56.2
	c0-8.2,4.8-16.8,11-22c4.5-3.8,10.6-6.9,16.8-8.4v11.9c-3.7,1.2-7.3,3.2-9.6,5.8c-2.3,2.5-3.5,3.9-4.9,7c-1.2,2.6-1.5,6.8-1.5,9.7
	v34.1h16v11.4h-16v28.1h0c-0.1,5.1-0.2,12.1,1.6,15.9c2,4.3,4.4,6.9,8.3,9.6c1.3,0.9,2.6,1.6,4,2.2c0.7,0.3,1.4,0.6,2.1,0.8v11.9
	c-6.2-1.5-12.2-4.6-16.8-8.4C170.4,155.5,171.5,145.5,171.5,131.3L171.5,131.3z M199.3,42.3c-0.6,0.3-1.1,0.6-1.7,1
	c-0.9,0.5-0.9,0.5-1.7,1.1c-2.4,1.9-0.5,0.1-2.8,2.4c-0.7,0.7-0.7,0.6-1.3,1.4c-2.3,2.9-4.3,6.9-4.3,10.9v21h4.9
	c0-5.2-0.6-20.7,1-24.9c0.4-1.2,1-2.1,1.6-3.1c0.7-1.2,2.3-2.9,3.5-3.8l0.8-0.6V42.3L199.3,42.3z M122.7,174.1v-11.9
	c3.7-1.2,7.3-3.2,9.6-5.8c2.3-2.5,3.5-3.9,4.9-7c1.2-2.6,1.5-6.8,1.5-9.7v-34.1h-16V94.2h16V66.1h0c0.1-5.1,0.2-12.1-1.6-15.9
	c-2-4.3-4.4-6.9-8.3-9.6c-1.3-0.9-2.6-1.6-4-2.2c-0.7-0.3-1.4-0.6-2.1-0.8V25.7c6.2,1.5,12.2,4.6,16.8,8.4c12,10.2,11,20.2,11,34.4
	v75.1c0,8.2-4.8,16.8-11,22C134.9,169.5,128.8,172.6,122.7,174.1L122.7,174.1z M122.7,157.6c0.6-0.3,1.1-0.6,1.7-1
	c0.9-0.5,0.9-0.5,1.7-1.1c2.4-1.9,0.5-0.1,2.8-2.4c0.7-0.7,0.7-0.6,1.3-1.4c2.3-2.9,4.3-6.9,4.3-10.9v-21h-4.9
	c0,5.2,0.6,20.7-1,24.9c-0.4,1.2-1,2.1-1.6,3.1c-0.7,1.2-2.3,2.9-3.5,3.8c-0.3,0.2-0.5,0.4-0.8,0.6V157.6z M122.7,25.7v11.9
	c-12.1-4-28.3-0.2-33.9,12c-1,2.3-1.6,4.7-1.6,7.1v86.3c0,6.4,3.4,10.9,8.1,15c3.6,3.1,8.8,4.9,13.5,5.6c1.1,0.1,2.2,0.1,3.3,0.2
	c0.2,0,0.5,0.1,0.8,0.1c0.6,0,1.2-0.1,1.8-0.2c2.5-0.1,5.4-0.6,8.1-1.5v11.9c-2.7,0.7-5.3,1-7.9,1c-7.8,0-11.1-0.5-18.4-3.2
	c-2.6-1-6.4-3.3-8.6-5.1c-8.5-7.2-12.7-14.4-12.7-25.7V58.7c0-7.3,1.9-13.6,6.3-19.4c3.4-4.6,9.7-9.3,15.1-11.4
	c6.7-2.6,11.2-3.1,18.3-3.1C117.3,24.7,120,25.1,122.7,25.7L122.7,25.7z M122.7,94.2H92v11.4h30.6V94.2L122.7,94.2z M122.7,152.2
	c-2.4,1.6-4.2,2.6-7.8,3.3c-4.3,0.9-4-1.6-4,4.7c4.5,0,8.4-0.9,11.8-2.6l0.1,0V152.2L122.7,152.2z M52.8,174.3H40.5V40.5l-40.4,15
	V44.1l50.6-18.8h2V174.3z"/>
<path class="st1" d="M471.7,142.2v-6.8h6.2l-6.1-18.5h0v-8.5h0.1c1.3,0,2.4,0,3.2,0.1c0.8,0,1.4,0.1,1.8,0.2
	c0.4,0.1,0.8,0.3,0.9,0.6c0.2,0.2,0.4,0.6,0.5,1l13.4,38.5c0.3,0.8,0.4,1.4,0.5,1.9c0.1,0.5,0,0.8-0.3,1.1c-0.2,0.2-0.7,0.4-1.3,0.4
	c-0.6,0.1-1.5,0.1-2.6,0.1c-1.1,0-2,0-2.7-0.1c-0.6,0-1.1-0.1-1.5-0.2c-0.3-0.1-0.6-0.2-0.7-0.4c-0.1-0.2-0.2-0.4-0.3-0.7l-2.9-8.7
	H471.7L471.7,142.2z M521.6,148.4c0,0.7,0,1.2-0.1,1.7c-0.1,0.5-0.1,0.8-0.3,1.1c-0.1,0.3-0.3,0.5-0.4,0.7c-0.2,0.1-0.4,0.2-0.6,0.2
	h-19.9c-0.7,0-1.4-0.2-1.9-0.7c-0.5-0.4-0.8-1.1-0.8-2.1v-39.5c0-0.2,0.1-0.4,0.2-0.6c0.1-0.2,0.4-0.3,0.7-0.4
	c0.3-0.1,0.8-0.2,1.4-0.3c0.6-0.1,1.3-0.1,2.1-0.1c0.9,0,1.6,0,2.1,0.1c0.6,0.1,1,0.2,1.3,0.3c0.3,0.1,0.6,0.3,0.7,0.4
	c0.1,0.2,0.2,0.4,0.2,0.6v35h13.7c0.2,0,0.4,0.1,0.6,0.2c0.2,0.1,0.3,0.3,0.4,0.6c0.1,0.3,0.2,0.7,0.3,1.1
	C521.6,147.2,521.6,147.7,521.6,148.4L521.6,148.4z M535.7,150.9c0,0.2-0.1,0.4-0.2,0.6c-0.1,0.2-0.4,0.3-0.7,0.4
	c-0.3,0.1-0.8,0.2-1.3,0.3c-0.6,0.1-1.3,0.1-2.1,0.1c-0.8,0-1.6,0-2.1-0.1c-0.6-0.1-1-0.2-1.4-0.3c-0.3-0.1-0.6-0.3-0.7-0.4
	c-0.1-0.2-0.2-0.4-0.2-0.6v-41c0-0.2,0.1-0.4,0.2-0.6c0.1-0.2,0.4-0.3,0.7-0.4c0.3-0.1,0.8-0.2,1.4-0.3c0.6-0.1,1.3-0.1,2.1-0.1
	c0.9,0,1.6,0,2.1,0.1c0.6,0.1,1,0.2,1.3,0.3c0.3,0.1,0.6,0.3,0.7,0.4c0.1,0.2,0.2,0.4,0.2,0.6V150.9L535.7,150.9z M574.1,112.3
	c0,0.7,0,1.2-0.1,1.7c-0.1,0.5-0.1,0.8-0.3,1.1c-0.1,0.3-0.3,0.5-0.4,0.6c-0.2,0.1-0.4,0.2-0.6,0.2h-10.9v35c0,0.2-0.1,0.4-0.2,0.6
	c-0.1,0.2-0.4,0.3-0.7,0.4c-0.3,0.1-0.8,0.2-1.4,0.3c-0.6,0.1-1.3,0.1-2.1,0.1c-0.8,0-1.6,0-2.1-0.1c-0.6-0.1-1-0.2-1.4-0.3
	c-0.3-0.1-0.6-0.3-0.7-0.4c-0.1-0.2-0.2-0.4-0.2-0.6v-35h-10.9c-0.2,0-0.4-0.1-0.6-0.2c-0.2-0.1-0.3-0.3-0.4-0.6
	c-0.1-0.3-0.2-0.7-0.3-1.1c0-0.5-0.1-1-0.1-1.7c0-0.7,0-1.2,0.1-1.7c0.1-0.5,0.1-0.8,0.3-1.1c0.1-0.3,0.3-0.5,0.4-0.6
	c0.1-0.1,0.3-0.2,0.6-0.2h30.6c0.2,0,0.4,0.1,0.6,0.2c0.2,0.1,0.3,0.3,0.4,0.6c0.1,0.3,0.2,0.7,0.3,1.1
	C574,111.1,574.1,111.6,574.1,112.3L574.1,112.3z M596.8,135.6v15.3c0,0.2-0.1,0.4-0.2,0.6c-0.1,0.2-0.4,0.3-0.7,0.4
	c-0.3,0.1-0.8,0.2-1.4,0.3c-0.6,0.1-1.3,0.1-2.1,0.1c-0.9,0-1.6,0-2.2-0.1c-0.6-0.1-1-0.2-1.4-0.3c-0.3-0.1-0.6-0.3-0.7-0.4
	c-0.1-0.2-0.2-0.4-0.2-0.6v-15.3L576,112c-0.4-0.8-0.7-1.5-0.8-1.9c-0.1-0.5-0.1-0.8,0.2-1c0.3-0.2,0.7-0.4,1.4-0.4
	c0.7-0.1,1.7-0.1,2.9-0.1c1,0,1.9,0,2.5,0.1c0.6,0,1.1,0.1,1.5,0.3c0.4,0.1,0.6,0.3,0.8,0.5c0.2,0.2,0.3,0.5,0.5,0.8l4.8,10.7
	c0.5,1,0.9,2.1,1.4,3.3c0.5,1.1,0.9,2.3,1.4,3.6h0.1c0.4-1.2,0.9-2.4,1.3-3.5c0.4-1.1,0.9-2.2,1.3-3.3l4.8-10.6
	c0.1-0.4,0.3-0.6,0.4-0.9c0.2-0.2,0.4-0.4,0.8-0.5c0.3-0.1,0.8-0.2,1.4-0.3c0.6,0,1.4-0.1,2.3-0.1c1.3,0,2.3,0,3,0.1
	c0.7,0.1,1.2,0.2,1.4,0.4c0.3,0.2,0.3,0.6,0.2,1.1c-0.1,0.5-0.4,1.1-0.8,1.9L596.8,135.6z M471.7,108.5v8.5h0l-6.1,18.5h6.2v6.8
	h-8.1l-2.8,8.5c-0.1,0.3-0.2,0.6-0.4,0.8c-0.1,0.2-0.4,0.4-0.7,0.5c-0.3,0.1-0.8,0.2-1.4,0.3c-0.6,0-1.4,0.1-2.3,0.1
	c-1,0-1.8,0-2.4-0.1c-0.6-0.1-1-0.2-1.2-0.5c-0.2-0.3-0.3-0.6-0.2-1.1c0.1-0.5,0.2-1.1,0.5-1.9l13.4-38.5c0.1-0.4,0.3-0.7,0.5-0.9
	c0.2-0.2,0.5-0.4,0.9-0.5c0.4-0.1,0.9-0.2,1.6-0.2C469.7,108.5,470.6,108.5,471.7,108.5L471.7,108.5z M384.4,152.9v-7.3
	c2.1,0,3.9-0.4,5.3-1.2c1.5-0.8,2.6-1.9,3.5-3.3c0.9-1.4,1.5-3,1.9-4.9c0.4-1.9,0.6-3.8,0.6-5.9c0-2.3-0.2-4.3-0.5-6.2
	c-0.4-1.9-1-3.5-1.8-4.8c-0.9-1.3-2-2.4-3.4-3.1c-1.4-0.7-3.2-1.1-5.4-1.1h-0.1v-7.2l0.4,0c3.3,0,6.1,0.4,8.6,1.3
	c2.5,0.9,4.6,2.2,6.3,4c1.7,1.8,3,4.1,3.9,6.8c0.9,2.8,1.3,6,1.3,9.8c0,1.9-0.1,3.8-0.4,5.5c-0.3,1.7-0.6,3.3-1.1,4.7
	c-0.5,1.5-1.1,2.8-1.8,4c-0.7,1.2-1.5,2.3-2.5,3.2c1.4,1.2,2.6,2.1,3.7,2.8c1.1,0.6,2,1.1,2.7,1.4c0.7,0.3,1.3,0.6,1.8,0.7
	c0.4,0.1,0.8,0.3,1,0.6c0.3,0.2,0.4,0.6,0.5,1.2c0.1,0.6,0.2,1.4,0.2,2.4c0,0.8,0,1.5-0.1,1.9c-0.1,0.5-0.2,0.9-0.3,1.1
	c-0.1,0.3-0.3,0.4-0.4,0.5c-0.1,0.1-0.3,0.1-0.5,0.1c-0.7,0-1.7-0.2-2.9-0.6c-1.2-0.4-2.5-1-3.9-1.7c-1.4-0.7-2.8-1.7-4.3-2.8
	c-1.4-1.1-2.8-2.3-4-3.7c-1,0.5-2.3,0.9-3.7,1.2C387.5,152.7,386,152.9,384.4,152.9L384.4,152.9z M448.5,135.9c0,2.7-0.4,5-1.2,7.2
	c-0.8,2.1-1.9,3.9-3.4,5.3c-1.5,1.5-3.4,2.6-5.7,3.3c-2.2,0.8-4.8,1.1-7.7,1.1c-2.7,0-5.2-0.3-7.4-1c-2.2-0.7-4-1.7-5.5-3.1
	c-1.5-1.4-2.6-3.1-3.4-5.2c-0.8-2.1-1.2-4.5-1.2-7.3v-26.4c0-0.2,0.1-0.4,0.2-0.6c0.1-0.2,0.4-0.3,0.7-0.4c0.3-0.1,0.8-0.2,1.4-0.3
	c0.6-0.1,1.3-0.1,2.2-0.1c0.8,0,1.6,0,2.1,0.1c0.6,0.1,1,0.2,1.4,0.3c0.3,0.1,0.6,0.3,0.7,0.4c0.1,0.2,0.2,0.4,0.2,0.6v25.7
	c0,1.7,0.2,3.2,0.6,4.5c0.4,1.3,1,2.3,1.8,3.1c0.8,0.8,1.7,1.4,2.9,1.9c1.1,0.4,2.3,0.6,3.7,0.6c1.4,0,2.6-0.2,3.7-0.6
	c1.1-0.4,2-1,2.8-1.9c0.8-0.8,1.4-1.8,1.8-3c0.4-1.2,0.6-2.6,0.6-4.1v-26.2c0-0.2,0.1-0.4,0.2-0.6c0.1-0.2,0.4-0.3,0.7-0.4
	c0.3-0.1,0.8-0.2,1.4-0.3c0.6-0.1,1.3-0.1,2.1-0.1c0.8,0,1.5,0,2.1,0.1c0.6,0.1,1,0.2,1.3,0.3c0.3,0.1,0.6,0.3,0.7,0.4
	c0.1,0.2,0.2,0.4,0.2,0.6V135.9z M311.3,129.9c0,3.6-0.4,6.8-1.3,9.7c-0.9,2.8-2.2,5.3-4,7.2c-1.8,2-4,3.5-6.6,4.5
	c-2.5,1-5.4,1.5-8.7,1.6v-7.3c2.1,0,3.9-0.4,5.3-1.2c1.5-0.8,2.6-1.9,3.5-3.3c0.9-1.4,1.5-3,1.9-4.8c0.4-1.8,0.6-3.8,0.6-5.9
	c0-2.3-0.2-4.4-0.5-6.2c-0.4-1.9-1-3.5-1.8-4.8c-0.9-1.3-2-2.4-3.4-3.1c-1.4-0.7-3.2-1.1-5.4-1.1h-0.1v-7.2l0.4,0
	c3.3,0,6.2,0.4,8.7,1.3c2.5,0.9,4.6,2.2,6.3,4c1.7,1.8,3,4.1,3.8,6.9C310.9,122.9,311.3,126.1,311.3,129.9L311.3,129.9z
	 M384.4,107.9v7.2c-2.1,0-3.9,0.4-5.3,1.2c-1.4,0.8-2.6,1.9-3.5,3.3c-0.9,1.4-1.5,3-1.9,4.8c-0.4,1.8-0.6,3.7-0.6,5.8
	c0,2.4,0.2,4.5,0.5,6.4c0.4,1.9,1,3.5,1.8,4.9c0.8,1.3,2,2.4,3.4,3.1c1.4,0.7,3.2,1.1,5.4,1.1h0.1v7.3l-0.4,0
	c-3.4,0-6.3-0.4-8.8-1.3c-2.5-0.9-4.6-2.2-6.3-4c-1.7-1.8-2.9-4.1-3.8-6.9c-0.8-2.8-1.3-6.2-1.3-10c0-3.5,0.4-6.7,1.4-9.5
	c0.9-2.8,2.2-5.2,4-7.2c1.8-2,4-3.5,6.6-4.5C378.2,108.5,381.1,107.9,384.4,107.9L384.4,107.9z M343.1,112.3c0,0.7,0,1.2-0.1,1.7
	c-0.1,0.5-0.1,0.8-0.3,1.1c-0.1,0.3-0.3,0.5-0.4,0.6c-0.2,0.1-0.3,0.2-0.5,0.2h-14.2v11.7h13.3c0.2,0,0.4,0.1,0.5,0.2
	c0.2,0.1,0.3,0.3,0.4,0.6c0.1,0.3,0.2,0.6,0.3,1.1c0,0.4,0.1,1,0.1,1.7c0,0.7,0,1.2-0.1,1.7c-0.1,0.4-0.1,0.8-0.3,1.1
	c-0.1,0.3-0.3,0.5-0.4,0.6c-0.1,0.1-0.3,0.2-0.5,0.2h-13.3v16.2c0,0.2-0.1,0.5-0.2,0.6c-0.1,0.2-0.4,0.3-0.7,0.5
	c-0.3,0.1-0.8,0.2-1.4,0.3c-0.6,0.1-1.3,0.1-2.1,0.1c-0.8,0-1.6,0-2.1-0.1c-0.6-0.1-1-0.2-1.4-0.3c-0.3-0.1-0.6-0.3-0.7-0.5
	c-0.1-0.2-0.2-0.4-0.2-0.6v-39.4c0-1,0.3-1.7,0.8-2.1c0.5-0.4,1.1-0.7,1.9-0.7h20.4c0.2,0,0.4,0.1,0.5,0.2c0.1,0.1,0.3,0.3,0.4,0.6
	c0.1,0.3,0.2,0.7,0.3,1.1C343.1,111.1,343.1,111.6,343.1,112.3z M290.8,152.9l-0.4,0c-3.4,0-6.3-0.4-8.8-1.3c-2.5-0.9-4.6-2.2-6.3-4
	c-1.7-1.8-2.9-4.1-3.8-6.9c-0.8-2.8-1.3-6.1-1.3-9.9c0-3.5,0.4-6.7,1.4-9.5c0.9-2.8,2.2-5.2,4-7.2c1.8-2,4-3.5,6.6-4.5
	c2.5-1,5.4-1.5,8.7-1.6v7.2c-2.1,0-3.9,0.4-5.3,1.2c-1.4,0.8-2.6,1.9-3.5,3.3c-0.9,1.4-1.5,3-1.9,4.8c-0.4,1.8-0.6,3.8-0.6,5.8
	c0,2.4,0.2,4.5,0.5,6.4c0.4,1.9,1,3.5,1.8,4.8c0.8,1.3,2,2.4,3.4,3.1c1.4,0.7,3.2,1.1,5.4,1.1h0.1V152.9z"/>
<path class="st1" d="M398.3,68.2v-7.5c0.6-0.1,1.2-0.2,1.8-0.4c0.9-0.3,1.7-0.7,2.3-1.3c0.6-0.6,1.1-1.2,1.4-2
	c0.3-0.8,0.5-1.6,0.5-2.6c0-1.4-0.3-2.6-1-3.6c-0.6-1-1.7-1.7-3.2-2.1c-0.4-0.1-1-0.2-1.5-0.3l-0.3,0v-6.8c0.7,0,1.3,0,1.8,0.1
	c0.7,0,1.4,0.1,2,0.2c1.7,0.3,3.3,0.7,4.7,1.3c1.4,0.6,2.6,1.4,3.6,2.4c1,1,1.7,2.1,2.2,3.5c0.5,1.3,0.8,2.9,0.8,4.6
	c0,1.5-0.2,2.8-0.5,4c-0.4,1.2-0.9,2.3-1.6,3.2c-0.7,0.9-1.6,1.8-2.7,2.5c-1,0.7-2.2,1.2-3.6,1.7c0.7,0.3,1.3,0.7,1.8,1.1
	c0.6,0.4,1.1,1,1.6,1.6c0.5,0.6,1,1.4,1.4,2.2c0.4,0.8,0.9,1.7,1.3,2.8l3.7,8.6c0.3,0.8,0.6,1.5,0.7,1.9c0.1,0.4,0.2,0.7,0.2,0.9
	c0,0.3,0,0.5-0.1,0.6c-0.1,0.2-0.3,0.3-0.6,0.4c-0.3,0.1-0.8,0.2-1.5,0.2c-0.6,0-1.5,0.1-2.6,0.1c-0.9,0-1.7,0-2.2-0.1
	c-0.6,0-1-0.1-1.3-0.3c-0.3-0.1-0.6-0.3-0.7-0.5c-0.1-0.2-0.3-0.4-0.3-0.7l-3.9-9.7c-0.5-1.1-0.9-2.1-1.4-2.9
	c-0.5-0.8-1-1.6-1.5-2.1C399.1,68.8,398.7,68.5,398.3,68.2L398.3,68.2z M447.3,72.1c0,2.3-0.4,4.3-1.3,6c-0.8,1.7-2,3.2-3.5,4.3
	c-1.5,1.2-3.2,2-5.1,2.6c-1.9,0.6-4,0.9-6.2,0.9c-1.5,0-2.9-0.1-4.2-0.4c-1.3-0.2-2.4-0.5-3.4-0.9c-1-0.4-1.8-0.7-2.5-1.1
	c-0.7-0.4-1.1-0.7-1.4-1c-0.3-0.3-0.5-0.7-0.6-1.3c-0.1-0.5-0.2-1.3-0.2-2.4c0-0.7,0-1.3,0.1-1.7c0-0.5,0.1-0.9,0.2-1.1
	c0.1-0.3,0.2-0.5,0.4-0.6c0.2-0.1,0.4-0.2,0.6-0.2c0.3,0,0.8,0.2,1.3,0.6c0.6,0.4,1.3,0.8,2.2,1.2c0.9,0.4,2,0.9,3.2,1.2
	c1.2,0.4,2.7,0.6,4.3,0.6c1.1,0,2-0.1,2.9-0.4c0.8-0.3,1.6-0.6,2.2-1.1c0.6-0.5,1-1,1.4-1.7c0.3-0.7,0.5-1.5,0.5-2.3
	c0-1-0.3-1.8-0.8-2.5c-0.5-0.7-1.2-1.3-2.1-1.9c-0.9-0.6-1.8-1.1-2.9-1.5c-1.1-0.5-2.2-1-3.4-1.5c-1.2-0.5-2.3-1.2-3.4-1.8
	c-1.1-0.7-2.1-1.5-2.9-2.5c-0.9-1-1.6-2.1-2.1-3.4c-0.5-1.3-0.8-2.9-0.8-4.7c0-2.1,0.4-3.9,1.2-5.5c0.8-1.6,1.8-2.9,3.1-3.9
	c1.3-1,2.9-1.8,4.6-2.3c1.8-0.5,3.7-0.8,5.7-0.8c1,0,2.1,0.1,3.1,0.2c1,0.2,2,0.4,2.9,0.6c0.9,0.3,1.7,0.6,2.4,0.9
	c0.7,0.3,1.2,0.6,1.4,0.8c0.2,0.2,0.4,0.4,0.5,0.6c0.1,0.2,0.1,0.4,0.2,0.6c0.1,0.3,0.1,0.6,0.1,1c0,0.4,0,0.9,0,1.5
	c0,0.6,0,1.2,0,1.6c0,0.4-0.1,0.8-0.2,1.1c-0.1,0.3-0.2,0.5-0.3,0.6c-0.1,0.1-0.3,0.2-0.6,0.2c-0.3,0-0.6-0.2-1.2-0.5
	c-0.5-0.3-1.2-0.7-2-1c-0.8-0.4-1.7-0.7-2.7-1c-1-0.3-2.2-0.5-3.4-0.5c-1,0-1.8,0.1-2.5,0.4c-0.7,0.2-1.3,0.6-1.8,1
	c-0.5,0.4-0.8,0.9-1.1,1.5c-0.2,0.6-0.4,1.2-0.4,1.8c0,1,0.3,1.8,0.8,2.5c0.5,0.7,1.2,1.3,2.1,1.9c0.9,0.5,1.9,1.1,3,1.5
	c1.1,0.5,2.3,1,3.4,1.5c1.2,0.5,2.3,1.1,3.4,1.8c1.1,0.7,2.1,1.5,3,2.5c0.9,1,1.6,2.1,2.1,3.4C447,68.9,447.3,70.4,447.3,72.1z
	 M398.3,41.7v6.8c-0.5,0-1.2-0.1-2.1-0.1h-4v12.3h4.5c0.5,0,1,0,1.5-0.1v7.5c-0.2-0.1-0.5-0.3-0.8-0.4c-0.7-0.3-1.5-0.4-2.5-0.4
	h-2.8V84c0,0.2-0.1,0.4-0.2,0.6c-0.1,0.2-0.4,0.3-0.7,0.4c-0.3,0.1-0.8,0.2-1.4,0.3c-0.5,0.1-1.3,0.1-2.1,0.1c-0.8,0-1.6,0-2.1-0.1
	c-0.6-0.1-1-0.2-1.4-0.3c-0.3-0.1-0.6-0.3-0.7-0.4c-0.1-0.2-0.2-0.4-0.2-0.6V44.5c0-1,0.3-1.7,0.8-2.1c0.5-0.4,1.1-0.7,1.9-0.7h11.2
	L398.3,41.7L398.3,41.7z M357.4,75.3v-6.8h6.2L357.5,50h0v-8.5h0.1c1.3,0,2.4,0,3.2,0.1c0.8,0,1.4,0.1,1.8,0.2
	c0.4,0.1,0.8,0.3,0.9,0.6c0.2,0.2,0.4,0.6,0.5,1l13.4,38.5c0.3,0.8,0.4,1.4,0.5,1.9c0.1,0.5,0,0.8-0.3,1.1c-0.2,0.2-0.7,0.4-1.3,0.4
	c-0.6,0.1-1.5,0.1-2.6,0.1c-1.1,0-2,0-2.7-0.1c-0.6,0-1.1-0.1-1.5-0.2c-0.3-0.1-0.6-0.2-0.7-0.4c-0.1-0.2-0.2-0.4-0.3-0.7l-2.9-8.7
	H357.4z M290.9,68.7V84c0,0.2-0.1,0.4-0.2,0.6c-0.1,0.2-0.4,0.3-0.7,0.4c-0.3,0.1-0.8,0.2-1.4,0.3c-0.6,0.1-1.3,0.1-2.1,0.1
	c-0.9,0-1.6,0-2.2-0.1c-0.6-0.1-1-0.2-1.4-0.3c-0.3-0.1-0.6-0.3-0.7-0.4c-0.1-0.2-0.2-0.4-0.2-0.6V68.7L270.2,45
	c-0.4-0.8-0.7-1.5-0.8-1.9c-0.1-0.5-0.1-0.8,0.2-1c0.3-0.2,0.7-0.4,1.4-0.4c0.7-0.1,1.7-0.1,2.9-0.1c1,0,1.9,0,2.5,0.1
	c0.6,0,1.1,0.1,1.5,0.3c0.4,0.1,0.6,0.3,0.8,0.5c0.2,0.2,0.3,0.5,0.5,0.8l4.8,10.7c0.5,1,0.9,2.1,1.4,3.3c0.5,1.1,0.9,2.3,1.4,3.6
	h0.1c0.4-1.2,0.9-2.4,1.3-3.5c0.4-1.1,0.9-2.2,1.3-3.3l4.8-10.6c0.1-0.4,0.3-0.6,0.4-0.9c0.2-0.2,0.4-0.4,0.8-0.5
	c0.3-0.1,0.8-0.2,1.4-0.3c0.6,0,1.4-0.1,2.3-0.1c1.3,0,2.3,0,3,0.1c0.7,0.1,1.2,0.2,1.4,0.4c0.3,0.2,0.3,0.6,0.2,1.1
	c-0.1,0.5-0.4,1.1-0.8,1.9L290.9,68.7L290.9,68.7z M357.4,41.5V50h0l-6.1,18.5h6.2v6.8h-8.1l-2.8,8.5c-0.1,0.3-0.2,0.6-0.4,0.8
	c-0.1,0.2-0.4,0.4-0.7,0.5c-0.3,0.1-0.8,0.2-1.4,0.3c-0.6,0-1.4,0.1-2.3,0.1c-1,0-1.8,0-2.4-0.1c-0.6-0.1-1-0.2-1.2-0.5
	c-0.2-0.3-0.3-0.6-0.2-1.1c0.1-0.5,0.2-1.1,0.5-1.9l13.4-38.5c0.1-0.4,0.3-0.7,0.5-0.9c0.2-0.2,0.5-0.4,0.9-0.5
	c0.4-0.1,0.9-0.2,1.6-0.2C355.5,41.5,356.4,41.5,357.4,41.5L357.4,41.5z M334.9,81.7c0,0.7,0,1.2-0.1,1.6c-0.1,0.4-0.1,0.8-0.3,1.1
	c-0.1,0.3-0.3,0.5-0.4,0.6c-0.2,0.1-0.4,0.2-0.6,0.2h-21.8c-0.7,0-1.4-0.2-1.9-0.7c-0.5-0.4-0.8-1.1-0.8-2.1V44.5
	c0-1,0.3-1.7,0.8-2.1c0.5-0.4,1.1-0.7,1.9-0.7h21.7c0.2,0,0.4,0.1,0.5,0.2c0.2,0.1,0.3,0.3,0.4,0.6c0.1,0.3,0.2,0.6,0.3,1.1
	c0.1,0.4,0.1,1,0.1,1.7c0,0.6,0,1.2-0.1,1.6c-0.1,0.4-0.1,0.8-0.3,1.1c-0.1,0.3-0.2,0.5-0.4,0.6c-0.2,0.1-0.3,0.2-0.5,0.2h-15.5
	v10.6H331c0.2,0,0.4,0.1,0.6,0.2c0.2,0.1,0.3,0.3,0.4,0.6c0.1,0.3,0.2,0.6,0.3,1c0.1,0.4,0.1,1,0.1,1.6c0,0.7,0,1.2-0.1,1.6
	c-0.1,0.4-0.1,0.8-0.3,1c-0.1,0.3-0.3,0.4-0.4,0.5c-0.2,0.1-0.4,0.2-0.6,0.2h-13.1v12.3h15.6c0.2,0,0.4,0.1,0.6,0.2
	c0.2,0.1,0.3,0.3,0.4,0.6c0.1,0.3,0.2,0.6,0.3,1.1C334.8,80.5,334.9,81.1,334.9,81.7z"/>
</svg>
