<svg width="413" height="210" viewBox="0 0 413 210" fill="none" xmlns="http://www.w3.org/2000/svg">
<path fill-rule="evenodd" clip-rule="evenodd" d="M48.8066 43.4487H3.41611C1.55803 43.4487 0 44.9601 0 46.8176V130.554C0 132.411 1.51186 133.969 3.36995 133.969H12.0256C13.8837 133.969 15.3956 132.457 15.4418 130.554V89.8163H43.3131C45.1712 89.8163 46.7292 88.3049 46.7292 86.4013V79.3637C46.7292 77.5062 45.2173 75.9487 43.3131 75.9487H15.4995V57.1432H48.8066C50.6647 57.1432 52.2227 55.6319 52.2227 53.7283V46.8406C52.2227 44.9832 50.6647 43.4718 48.8066 43.4718V43.4487Z" fill="white"/>
<path fill-rule="evenodd" clip-rule="evenodd" d="M81.6751 87.6354C88.2188 87.9008 91.5079 90.912 91.5079 96.7151V99.634H81.6751V109.487H91.4618V112.602C91.4618 116.178 90.7578 118.589 89.3498 119.939C87.6648 121.578 85.0912 122.477 81.6751 122.662V134.234C85.6567 133.553 89.0497 131.799 91.8657 128.984V130.6C91.8657 132.457 93.3776 134.015 95.2818 134.015H102.53C104.388 134.015 105.946 132.503 105.946 130.6V95.8498C105.899 82.3053 97.8554 75.4638 81.6751 75.3369V87.6239V87.6354ZM81.2019 75.3369C73.758 75.3369 67.7221 77.1482 63.0942 80.7709C61.64 81.9246 61.3861 84.0936 62.5402 85.5472C62.6441 85.6511 62.7364 85.7434 62.8403 85.8472L67.2143 90.1275C68.4261 91.2812 70.3303 91.385 71.6922 90.3813C74.1042 88.5238 77.1279 87.6124 80.6941 87.6124C81.0288 87.6124 81.3519 87.6124 81.6751 87.6354V75.3484C81.5135 75.3484 81.3635 75.3484 81.2019 75.3484V75.3369ZM81.6751 99.634H77.8204C71.3806 99.634 66.3949 101.238 62.9326 104.514C59.6665 107.537 58.0508 111.506 58.0508 116.432C58.0508 121.762 59.655 126.089 62.8287 129.457C66.2448 132.872 71.1844 134.591 77.6242 134.591C79.0322 134.591 80.3825 134.476 81.6751 134.257V122.685C81.2134 122.708 80.7287 122.72 80.244 122.72C74.6582 122.72 71.8884 120.505 71.8884 116.028C71.8884 111.552 74.6005 109.487 79.9901 109.487H81.6751V99.634Z" fill="white"/>
<path fill-rule="evenodd" clip-rule="evenodd" d="M160.638 78.2101C157.522 76.2488 153.841 75.2912 150.171 75.3489C143.927 75.3489 139.103 77.414 135.583 81.5905V79.433C135.583 77.5756 134.071 76.018 132.167 76.018H124.873C123.015 76.018 121.457 77.5294 121.457 79.433V130.577C121.457 132.434 122.969 133.992 124.873 133.992H132.525C134.383 133.992 135.941 132.481 135.941 130.577V99.0461C135.941 95.6311 136.945 92.9083 138.965 90.947C140.627 89.2857 142.935 88.3858 145.301 88.3858C147.263 88.3858 149.224 88.9857 150.84 90.0933C152.202 90.9932 154.014 90.797 155.168 89.6895L161.25 83.5518C162.554 82.2481 162.554 80.0791 161.25 78.7754C161.054 78.5216 160.846 78.3716 160.65 78.2216L160.638 78.2101Z" fill="white"/>
<path fill-rule="evenodd" clip-rule="evenodd" d="M234.592 75.3369C227.702 75.3369 221.909 77.8059 217.235 82.6745C213.669 77.7943 208.533 75.3369 201.885 75.3369C196.103 75.3369 191.268 77.3444 187.448 81.3247V79.3634C187.448 77.5059 185.936 75.9484 184.032 75.9484H176.692C174.833 75.9484 173.275 77.4597 173.275 79.3634V130.507C173.275 132.365 174.787 133.876 176.692 133.922H184.343C186.201 133.922 187.759 132.411 187.759 130.507V98.8726C187.759 95.2499 188.821 92.481 190.875 90.6235C192.583 89.066 194.753 88.3161 197.419 88.3161C199.785 88.2123 202.093 89.066 203.859 90.6235C205.925 92.481 206.975 95.2038 206.975 98.8726V130.507C206.975 132.365 208.487 133.876 210.391 133.922H218.043C219.901 133.922 221.459 132.411 221.459 130.507V98.6187C221.459 95.1461 222.521 92.481 224.679 90.6235C226.491 89.1122 228.799 88.3161 231.119 88.4084C233.484 88.3046 235.793 89.1583 237.558 90.7274C239.624 92.5849 240.674 95.3076 240.674 98.9764V130.611C240.674 132.469 242.186 133.98 244.091 134.026H251.742C253.6 134.026 255.158 132.515 255.158 130.611V96.9689C255.158 90.2313 253.046 84.7512 248.822 80.5286C245.452 77.0559 240.674 75.3484 234.581 75.3484L234.592 75.3369Z" fill="white"/>
<path fill-rule="evenodd" clip-rule="evenodd" d="M290.392 87.6354C296.913 87.9123 300.202 90.9235 300.202 96.7151V99.634H290.392V109.487H300.202V112.602H300.156C300.156 116.178 299.452 118.589 298.044 119.939C296.371 121.578 293.797 122.466 290.392 122.662V134.234C294.363 133.541 297.744 131.799 300.56 128.984V130.6C300.56 132.457 302.072 133.968 303.976 134.015H311.316C313.174 134.015 314.732 132.503 314.732 130.6V95.8498C314.582 82.3053 306.55 75.4754 290.381 75.3369V87.6239L290.392 87.6354ZM289.885 75.3369C282.441 75.3369 276.405 77.1482 271.777 80.7709C270.323 81.9246 270.069 84.0936 271.223 85.5472C271.327 85.6511 271.419 85.7434 271.523 85.8472L275.897 90.1275C277.109 91.2812 279.013 91.385 280.375 90.3813C282.787 88.5238 285.811 87.6124 289.377 87.6124C289.723 87.6124 290.058 87.6124 290.381 87.6354V75.3484C290.208 75.3484 290.046 75.3484 289.873 75.3484L289.885 75.3369ZM290.392 99.634H286.515C280.075 99.634 275.089 101.238 271.627 104.514C268.361 107.537 266.745 111.506 266.745 116.432C266.745 121.762 268.361 126.089 271.523 129.457C274.939 132.872 279.879 134.591 286.319 134.591C287.738 134.591 289.1 134.476 290.392 134.257V122.685C289.919 122.708 289.435 122.731 288.938 122.731C283.353 122.731 280.583 120.516 280.583 116.04C280.583 111.563 283.295 109.498 288.731 109.498H290.392V99.6455V99.634Z" fill="white"/>
<path fill-rule="evenodd" clip-rule="evenodd" d="M394.388 151.54L359.523 103.765L382.963 81.8325C384.324 80.575 384.417 78.4176 383.113 77.01C382.455 76.3063 381.555 75.9486 380.643 75.9486H369.425C368.571 75.9486 367.717 76.3063 367.105 76.8485L344.566 97.9268V31.6808C344.566 29.8234 343.054 28.2659 341.15 28.2659H333.498C331.64 28.2659 330.082 29.7772 330.082 31.6808V130.554C330.082 132.411 331.594 133.969 333.498 133.969H341.15C343.008 133.969 344.566 132.457 344.566 130.554V117.724L348.894 113.698L382.755 160.065C383.863 161.577 385.975 161.923 387.487 160.815L393.672 156.293C395.184 155.185 395.531 153.074 394.377 151.517L394.388 151.54Z" fill="white"/>
<path fill-rule="evenodd" clip-rule="evenodd" d="M337.375 209.317C365.097 209.363 391.71 198.357 411.33 178.686C412.634 177.325 412.634 175.214 411.284 173.91L411.237 173.864L405.755 168.73C404.451 167.472 402.385 167.518 401.081 168.776C365.87 203.779 308.962 203.779 273.693 168.776C272.389 167.518 270.323 167.472 269.019 168.73L263.537 173.91C262.175 175.167 262.082 177.325 263.34 178.686L263.387 178.732C283.052 198.345 309.677 209.363 337.387 209.306L337.375 209.317Z" fill="white"/>
<path fill-rule="evenodd" clip-rule="evenodd" d="M337.375 0.000144536C365.097 -0.0460038 391.71 10.9604 411.33 30.6311C412.634 31.9925 412.634 34.1038 411.284 35.4075L411.237 35.4536L405.755 40.5876C404.451 41.8451 402.385 41.799 401.081 40.5415C365.87 5.53794 308.962 5.53794 273.693 40.5415C272.389 41.799 270.323 41.8451 269.019 40.5876L263.537 35.4536C262.175 34.1961 262.082 32.0386 263.34 30.6772L263.387 30.6311C283.041 10.9604 309.654 -0.0460038 337.375 0.000144536Z" fill="white"/>
<path fill-rule="evenodd" clip-rule="evenodd" d="M48.8066 43.4487H3.41611C1.55803 43.4487 0 44.9601 0 46.8176V130.554C0 132.411 1.51186 133.969 3.36995 133.969H12.0256C13.8837 133.969 15.3956 132.457 15.4418 130.554V89.8163H43.3131C45.1712 89.8163 46.7292 88.3049 46.7292 86.4013V79.3637C46.7292 77.5062 45.2173 75.9487 43.3131 75.9487H15.4995V57.1432H48.8066C50.6647 57.1432 52.2227 55.6319 52.2227 53.7283V46.8406C52.2227 44.9832 50.6647 43.4718 48.8066 43.4718V43.4487Z" fill="#3E4952"/>
<path fill-rule="evenodd" clip-rule="evenodd" d="M81.6751 87.6354C88.2188 87.9008 91.5079 90.912 91.5079 96.7151V99.634H81.6751V109.487H91.4618V112.602C91.4618 116.178 90.7578 118.589 89.3498 119.939C87.6648 121.578 85.0912 122.477 81.6751 122.662V134.234C85.6567 133.553 89.0497 131.799 91.8657 128.984V130.6C91.8657 132.457 93.3776 134.015 95.2818 134.015H102.53C104.388 134.015 105.946 132.503 105.946 130.6V95.8498C105.899 82.3053 97.8554 75.4638 81.6751 75.3369V87.6239V87.6354ZM81.2019 75.3369C73.758 75.3369 67.7221 77.1482 63.0942 80.7709C61.64 81.9246 61.3861 84.0936 62.5402 85.5472C62.6441 85.6511 62.7364 85.7434 62.8403 85.8472L67.2143 90.1275C68.4261 91.2812 70.3303 91.385 71.6922 90.3813C74.1042 88.5238 77.1279 87.6124 80.6941 87.6124C81.0288 87.6124 81.3519 87.6124 81.6751 87.6354V75.3484C81.5135 75.3484 81.3635 75.3484 81.2019 75.3484V75.3369ZM81.6751 99.634H77.8204C71.3806 99.634 66.3949 101.238 62.9326 104.514C59.6665 107.537 58.0508 111.506 58.0508 116.432C58.0508 121.762 59.655 126.089 62.8287 129.457C66.2448 132.872 71.1844 134.591 77.6242 134.591C79.0322 134.591 80.3825 134.476 81.6751 134.257V122.685C81.2134 122.708 80.7287 122.72 80.244 122.72C74.6582 122.72 71.8884 120.505 71.8884 116.028C71.8884 111.552 74.6005 109.487 79.9901 109.487H81.6751V99.634Z" fill="#3E4952"/>
<path fill-rule="evenodd" clip-rule="evenodd" d="M160.638 78.2101C157.522 76.2488 153.841 75.2912 150.171 75.3489C143.927 75.3489 139.103 77.414 135.583 81.5905V79.433C135.583 77.5756 134.071 76.018 132.167 76.018H124.873C123.015 76.018 121.457 77.5294 121.457 79.433V130.577C121.457 132.434 122.969 133.992 124.873 133.992H132.525C134.383 133.992 135.941 132.481 135.941 130.577V99.0461C135.941 95.6311 136.945 92.9083 138.965 90.947C140.627 89.2857 142.935 88.3858 145.301 88.3858C147.263 88.3858 149.224 88.9857 150.84 90.0933C152.202 90.9932 154.014 90.797 155.168 89.6895L161.25 83.5518C162.554 82.2481 162.554 80.0791 161.25 78.7754C161.054 78.5216 160.846 78.3716 160.65 78.2216L160.638 78.2101Z" fill="#3E4952"/>
<path fill-rule="evenodd" clip-rule="evenodd" d="M234.592 75.3369C227.702 75.3369 221.909 77.8059 217.235 82.6745C213.669 77.7943 208.533 75.3369 201.885 75.3369C196.103 75.3369 191.268 77.3444 187.448 81.3247V79.3634C187.448 77.5059 185.936 75.9484 184.032 75.9484H176.692C174.833 75.9484 173.275 77.4597 173.275 79.3634V130.507C173.275 132.365 174.787 133.876 176.692 133.922H184.343C186.201 133.922 187.759 132.411 187.759 130.507V98.8726C187.759 95.2499 188.821 92.481 190.875 90.6235C192.583 89.066 194.753 88.3161 197.419 88.3161C199.785 88.2123 202.093 89.066 203.859 90.6235C205.925 92.481 206.975 95.2038 206.975 98.8726V130.507C206.975 132.365 208.487 133.876 210.391 133.922H218.043C219.901 133.922 221.459 132.411 221.459 130.507V98.6187C221.459 95.1461 222.521 92.481 224.679 90.6235C226.491 89.1122 228.799 88.3161 231.119 88.4084C233.484 88.3046 235.793 89.1583 237.558 90.7274C239.624 92.5849 240.674 95.3076 240.674 98.9764V130.611C240.674 132.469 242.186 133.98 244.091 134.026H251.742C253.6 134.026 255.158 132.515 255.158 130.611V96.9689C255.158 90.2313 253.046 84.7512 248.822 80.5286C245.452 77.0559 240.674 75.3484 234.581 75.3484L234.592 75.3369Z" fill="#3E4952"/>
<path fill-rule="evenodd" clip-rule="evenodd" d="M290.392 87.6354C296.913 87.9123 300.202 90.9235 300.202 96.7151V99.634H290.392V109.487H300.202V112.602H300.156C300.156 116.178 299.452 118.589 298.044 119.939C296.371 121.578 293.797 122.466 290.392 122.662V134.234C294.363 133.541 297.744 131.799 300.56 128.984V130.6C300.56 132.457 302.072 133.968 303.976 134.015H311.316C313.174 134.015 314.732 132.503 314.732 130.6V95.8498C314.582 82.3053 306.55 75.4754 290.381 75.3369V87.6239L290.392 87.6354ZM289.885 75.3369C282.441 75.3369 276.405 77.1482 271.777 80.7709C270.323 81.9246 270.069 84.0936 271.223 85.5472C271.327 85.6511 271.419 85.7434 271.523 85.8472L275.897 90.1275C277.109 91.2812 279.013 91.385 280.375 90.3813C282.787 88.5238 285.811 87.6124 289.377 87.6124C289.723 87.6124 290.058 87.6124 290.381 87.6354V75.3484C290.208 75.3484 290.046 75.3484 289.873 75.3484L289.885 75.3369ZM290.392 99.634H286.515C280.075 99.634 275.089 101.238 271.627 104.514C268.361 107.537 266.745 111.506 266.745 116.432C266.745 121.762 268.361 126.089 271.523 129.457C274.939 132.872 279.879 134.591 286.319 134.591C287.738 134.591 289.1 134.476 290.392 134.257V122.685C289.919 122.708 289.435 122.731 288.938 122.731C283.353 122.731 280.583 120.516 280.583 116.04C280.583 111.563 283.295 109.498 288.731 109.498H290.392V99.6455V99.634Z" fill="#3E4952"/>
<path fill-rule="evenodd" clip-rule="evenodd" d="M394.388 151.54L359.523 103.765L382.963 81.8325C384.324 80.575 384.417 78.4176 383.113 77.01C382.455 76.3063 381.555 75.9486 380.643 75.9486H369.425C368.571 75.9486 367.717 76.3063 367.105 76.8485L344.566 97.9268V31.6808C344.566 29.8234 343.054 28.2659 341.15 28.2659H333.498C331.64 28.2659 330.082 29.7772 330.082 31.6808V130.554C330.082 132.411 331.594 133.969 333.498 133.969H341.15C343.008 133.969 344.566 132.457 344.566 130.554V117.724L348.894 113.698L382.755 160.065C383.863 161.577 385.975 161.923 387.487 160.815L393.672 156.293C395.184 155.185 395.531 153.074 394.377 151.517L394.388 151.54Z" fill="#3E4952"/>
<path fill-rule="evenodd" clip-rule="evenodd" d="M337.375 209.317C365.097 209.363 391.71 198.357 411.33 178.686C412.634 177.325 412.634 175.214 411.284 173.91L411.237 173.864L405.755 168.73C404.451 167.472 402.385 167.518 401.081 168.776C365.87 203.779 308.962 203.779 273.693 168.776C272.389 167.518 270.323 167.472 269.019 168.73L263.537 173.91C262.175 175.167 262.082 177.325 263.34 178.686L263.387 178.732C283.052 198.345 309.677 209.363 337.387 209.306L337.375 209.317Z" fill="#00A3E0"/>
<path fill-rule="evenodd" clip-rule="evenodd" d="M337.375 0.000144536C365.097 -0.0460038 391.71 10.9604 411.33 30.6311C412.634 31.9925 412.634 34.1038 411.284 35.4075L411.237 35.4536L405.755 40.5876C404.451 41.8451 402.385 41.799 401.081 40.5415C365.87 5.53794 308.962 5.53794 273.693 40.5415C272.389 41.799 270.323 41.8451 269.019 40.5876L263.537 35.4536C262.175 34.1961 262.082 32.0386 263.34 30.6772L263.387 30.6311C283.041 10.9604 309.654 -0.0460038 337.375 0.000144536Z" fill="#00A3E0"/>
</svg>
