<?xml version="1.0" encoding="utf-8"?>
<!-- Generator: Adobe Illustrator 23.0.0, SVG Export Plug-In . SVG Version: 6.00 Build 0)  -->
<svg version="1.1" id="Слой_1" xmlns="http://www.w3.org/2000/svg" xmlns:xlink="http://www.w3.org/1999/xlink" x="0px" y="0px"
	 viewBox="0 0 609 192" style="enable-background:new 0 0 609 192;" xml:space="preserve">
<style type="text/css">
	.st0{fill-rule:evenodd;clip-rule:evenodd;fill:#00A3E0;}
	.st1{fill:#3E4952;}
</style>
<path class="st0" d="M217.7,135.4V40.1c0-10.5,6.1-21.3,14-28c8.2-7,20.5-12,31.4-12c10,0,14.1,0.7,23.4,4.1
	c3.3,1.2,8.2,4.2,10.9,6.5c10.8,9.1,16.1,18.3,16.1,32.6v104.6c0,9.3-2.4,17.2-8,24.7c-4.4,5.8-12.4,11.8-19.1,14.5
	c-8.5,3.4-14.2,4-23.2,4c-10.9,0-23.2-5-31.4-12C216.4,166.2,217.7,153.5,217.7,135.4L217.7,135.4z M237.9,43.6v26.7h6.3
	c0-6.6-0.7-26.3,1.3-31.6c0.6-1.5,1.2-2.6,2-4c0.9-1.5,3-3.7,4.4-4.8c3.6-2.5,5.8-3.9,10.9-4.9c5.5-1.1,5.1,2,5.1-5.9
	c-5.7,0-10.7,1.1-15,3.3c-0.9,0.4-1.4,0.8-2.3,1.3c-1.1,0.6-1.1,0.7-2.1,1.4c-3.1,2.4-0.6,0.1-3.6,3c-0.9,0.8-0.9,0.8-1.7,1.8
	C240.4,33.5,237.9,38.5,237.9,43.6L237.9,43.6z M170.7,147.5v-26.7h-6.3c0,6.6,0.7,26.3-1.3,31.6c-0.6,1.5-1.2,2.6-2,4
	c-0.9,1.5-3,3.7-4.4,4.8c-3.6,2.5-5.8,3.9-10.9,4.9c-5.4,1.1-5.1-2-5.1,5.9c5.7,0,10.7-1.1,15-3.3c0.9-0.4,1.4-0.8,2.3-1.3
	c1.1-0.6,1.1-0.7,2.1-1.4c3.1-2.4,0.6-0.1,3.6-3c0.9-0.8,0.9-0.8,1.7-1.8C168.2,157.6,170.8,152.6,170.7,147.5L170.7,147.5z
	 M66.8,190H51.3V20.2L0,39.2V24.7L64.3,0.9h2.6V190L66.8,190z M191,55.6V151c0,10.5-6.1,21.3-14,28c-8.2,7-20.5,12-31.4,12
	c-10,0-14.1-0.7-23.4-4.1c-3.3-1.2-8.2-4.2-10.9-6.5c-10.8-9.1-16.1-18.3-16.1-32.6V43.1c0-9.3,2.4-17.2,8-24.7
	c4.4-5.8,12.4-11.8,19.1-14.5c8.5-3.4,14.2-4,23.2-4c10.9,0,23.1,5,31.4,12C192.2,24.9,190.9,37.6,191,55.6L191,55.6z M176,102.8
	h-59.2V88.3H176V52.6c0.1-6.4,0.2-15.3-2-20.2c-2.5-5.5-5.5-8.8-10.5-12.3c-1.6-1.1-3.3-2-5.1-2.8c-15.6-6.7-38.3-2.2-45.8,14.2
	c-1.3,2.9-2,5.9-2,9.1v109.6c0,8.2,4.3,13.9,10.3,19c4.6,3.9,11.2,6.3,17.1,7c1.4,0.2,2.7,0.2,4.1,0.3c0.3,0,0.7,0.1,1,0.1
	c0.7,0,1.5-0.2,2.3-0.2c7.6-0.4,17.3-3.5,22.5-9.3c2.9-3.2,4.4-5,6.2-8.9c1.5-3.4,1.9-8.6,1.9-12.3V102.8z M232.7,88.4h59.2v14.4
	h-59.2v35.7c-0.1,6.4-0.2,15.3,2,20.2c2.5,5.5,5.5,8.8,10.5,12.3c1.6,1.1,3.3,2,5.1,2.8c15.6,6.7,38.3,2.2,45.8-14.2
	c1.3-2.9,2-5.9,2-9.1V40.7c0-8.2-4.3-13.9-10.3-19c-4.6-3.9-11.2-6.3-17.1-7c-1.4-0.2-2.7-0.2-4.1-0.3c-0.3,0-0.7-0.1-1-0.1
	c-0.7,0-1.5,0.2-2.3,0.2c-7.6,0.4-17.3,3.5-22.5,9.3c-2.9,3.2-4.4,5-6.2,8.9c-1.5,3.4-1.9,8.6-1.9,12.3L232.7,88.4L232.7,88.4z"/>
<path class="st1" d="M460.3,151.7v-7.4h6.7l-6.7-20.1h0V115h0.1c1.4,0,2.6,0,3.4,0.1c0.8,0,1.5,0.1,2,0.2c0.5,0.1,0.8,0.3,1,0.6
	c0.2,0.3,0.4,0.6,0.5,1.1l14.6,41.8c0.3,0.9,0.5,1.6,0.5,2.1c0.1,0.5,0,0.9-0.3,1.1c-0.3,0.3-0.7,0.4-1.4,0.5
	c-0.7,0.1-1.6,0.1-2.8,0.1c-1.2,0-2.2,0-2.9-0.1c-0.7,0-1.2-0.1-1.6-0.2c-0.4-0.1-0.6-0.3-0.8-0.5c-0.1-0.2-0.3-0.4-0.4-0.8
	l-3.2-9.5H460.3L460.3,151.7z M514.5,158.4c0,0.7,0,1.3-0.1,1.8c-0.1,0.5-0.1,0.9-0.3,1.2c-0.1,0.3-0.3,0.6-0.5,0.7
	c-0.2,0.1-0.4,0.2-0.6,0.2h-21.6c-0.8,0-1.5-0.2-2-0.7c-0.5-0.5-0.8-1.2-0.8-2.3v-42.9c0-0.2,0.1-0.5,0.2-0.6
	c0.2-0.2,0.4-0.4,0.8-0.5c0.4-0.1,0.9-0.2,1.5-0.3c0.6-0.1,1.4-0.1,2.3-0.1c0.9,0,1.7,0,2.3,0.1c0.6,0.1,1.1,0.2,1.5,0.3
	c0.4,0.1,0.6,0.3,0.8,0.5c0.2,0.2,0.2,0.4,0.2,0.6v38h14.8c0.2,0,0.5,0.1,0.6,0.2c0.2,0.1,0.3,0.4,0.5,0.7c0.1,0.3,0.2,0.7,0.3,1.2
	C514.5,157.1,514.5,157.7,514.5,158.4L514.5,158.4z M529.8,161.1c0,0.2-0.1,0.5-0.2,0.6c-0.1,0.2-0.4,0.4-0.8,0.5
	c-0.4,0.1-0.8,0.2-1.5,0.3c-0.6,0.1-1.4,0.1-2.3,0.1c-0.9,0-1.7,0-2.3-0.1c-0.6-0.1-1.1-0.2-1.5-0.3c-0.4-0.1-0.6-0.3-0.8-0.5
	c-0.2-0.2-0.2-0.4-0.2-0.6v-44.6c0-0.2,0.1-0.5,0.2-0.6c0.2-0.2,0.4-0.4,0.8-0.5c0.4-0.1,0.9-0.2,1.5-0.3c0.6-0.1,1.4-0.1,2.3-0.1
	c0.9,0,1.7,0,2.3,0.1c0.6,0.1,1.1,0.2,1.5,0.3c0.4,0.1,0.6,0.3,0.8,0.5c0.2,0.2,0.2,0.4,0.2,0.6V161.1L529.8,161.1z M571.5,119.2
	c0,0.7,0,1.3-0.1,1.8c-0.1,0.5-0.1,0.9-0.3,1.2c-0.1,0.3-0.3,0.5-0.4,0.7c-0.2,0.1-0.4,0.2-0.6,0.2h-11.8v38c0,0.2-0.1,0.5-0.2,0.6
	c-0.2,0.2-0.4,0.4-0.8,0.5c-0.4,0.1-0.9,0.2-1.5,0.3c-0.6,0.1-1.4,0.1-2.3,0.1c-0.9,0-1.7,0-2.3-0.1c-0.6-0.1-1.1-0.2-1.5-0.3
	c-0.4-0.1-0.6-0.3-0.8-0.5c-0.2-0.2-0.2-0.4-0.2-0.6v-38h-11.8c-0.2,0-0.4-0.1-0.6-0.2c-0.2-0.1-0.3-0.4-0.4-0.7
	c-0.1-0.3-0.2-0.7-0.3-1.2c0-0.5-0.1-1.1-0.1-1.8c0-0.7,0-1.3,0.1-1.9c0.1-0.5,0.2-0.9,0.3-1.2c0.1-0.3,0.3-0.5,0.4-0.7
	c0.2-0.1,0.4-0.2,0.6-0.2h33.3c0.2,0,0.4,0.1,0.6,0.2c0.2,0.1,0.3,0.3,0.4,0.7c0.1,0.3,0.2,0.7,0.3,1.2
	C571.5,117.8,571.5,118.5,571.5,119.2L571.5,119.2z M596.1,144.6v16.6c0,0.2-0.1,0.5-0.2,0.6c-0.2,0.2-0.4,0.4-0.8,0.5
	c-0.4,0.1-0.9,0.2-1.5,0.3c-0.6,0.1-1.4,0.1-2.3,0.1c-1,0-1.7,0-2.3-0.1c-0.6-0.1-1.1-0.2-1.5-0.3c-0.4-0.1-0.6-0.3-0.8-0.5
	c-0.1-0.2-0.2-0.4-0.2-0.6v-16.6l-12.9-25.7c-0.5-0.9-0.8-1.6-0.9-2.1c-0.1-0.5-0.1-0.9,0.2-1.1c0.3-0.3,0.8-0.4,1.5-0.5
	c0.8-0.1,1.8-0.1,3.1-0.1c1.1,0,2,0,2.7,0.1c0.7,0,1.2,0.1,1.6,0.3c0.4,0.1,0.7,0.3,0.9,0.5c0.2,0.2,0.3,0.5,0.5,0.8l5.3,11.6
	c0.5,1.1,1,2.3,1.5,3.5c0.5,1.2,1,2.5,1.5,3.9h0.1c0.5-1.3,0.9-2.6,1.4-3.8c0.5-1.2,1-2.4,1.4-3.5l5.2-11.5c0.1-0.4,0.3-0.7,0.4-0.9
	c0.2-0.2,0.5-0.4,0.8-0.6c0.4-0.1,0.9-0.2,1.5-0.3c0.6,0,1.5-0.1,2.5-0.1c1.4,0,2.5,0,3.2,0.1c0.8,0.1,1.3,0.2,1.6,0.5
	c0.3,0.2,0.3,0.6,0.2,1.1c-0.1,0.5-0.4,1.2-0.9,2.1L596.1,144.6z M460.3,115v9.2h0l-6.7,20.1h6.7v7.4h-8.8l-3,9.2
	c-0.1,0.3-0.2,0.6-0.4,0.9c-0.1,0.2-0.4,0.4-0.8,0.5c-0.3,0.1-0.9,0.2-1.5,0.3c-0.6,0.1-1.5,0.1-2.5,0.1c-1.1,0-2,0-2.6-0.1
	c-0.6-0.1-1.1-0.2-1.3-0.5c-0.2-0.3-0.3-0.7-0.3-1.2c0.1-0.5,0.3-1.2,0.5-2l14.6-41.9c0.1-0.4,0.3-0.7,0.5-1
	c0.2-0.2,0.5-0.4,0.9-0.6c0.4-0.1,1-0.2,1.8-0.2C458.2,115.1,459.1,115,460.3,115L460.3,115z M365.4,163.3v-7.9
	c2.3,0,4.2-0.5,5.8-1.3c1.6-0.9,2.9-2.1,3.8-3.6c1-1.5,1.7-3.3,2.1-5.3c0.4-2,0.6-4.2,0.6-6.4c0-2.5-0.2-4.7-0.6-6.7
	c-0.4-2-1.1-3.8-2-5.2c-0.9-1.4-2.2-2.6-3.7-3.3c-1.6-0.8-3.5-1.2-5.8-1.2h-0.1v-7.9l0.4,0c3.5,0,6.6,0.5,9.4,1.4
	c2.7,0.9,5,2.4,6.9,4.4c1.9,2,3.3,4.4,4.2,7.4c1,3,1.4,6.5,1.4,10.6c0,2.1-0.1,4.1-0.4,6c-0.3,1.9-0.7,3.6-1.2,5.2
	c-0.5,1.6-1.2,3-2,4.3c-0.8,1.3-1.7,2.5-2.7,3.5c1.5,1.3,2.9,2.3,4,3c1.2,0.7,2.1,1.2,2.9,1.5c0.8,0.3,1.4,0.6,1.9,0.8
	c0.5,0.1,0.8,0.4,1.1,0.6c0.3,0.3,0.5,0.7,0.6,1.3c0.1,0.6,0.2,1.5,0.2,2.6c0,0.9,0,1.6-0.1,2.1c-0.1,0.5-0.2,0.9-0.3,1.2
	c-0.1,0.3-0.3,0.5-0.5,0.6c-0.2,0.1-0.3,0.1-0.5,0.1c-0.8,0-1.9-0.2-3.2-0.7c-1.3-0.4-2.7-1.1-4.2-1.9c-1.5-0.8-3.1-1.8-4.6-3
	c-1.6-1.2-3-2.5-4.4-4.1c-1.1,0.5-2.5,1-4.1,1.3C368.8,163.1,367.2,163.3,365.4,163.3L365.4,163.3z M435.1,144.9
	c0,2.9-0.4,5.5-1.3,7.8c-0.8,2.3-2.1,4.2-3.7,5.8c-1.7,1.6-3.7,2.8-6.1,3.6c-2.4,0.8-5.2,1.2-8.4,1.2c-3,0-5.6-0.4-8-1.1
	c-2.4-0.7-4.4-1.9-6-3.4c-1.6-1.5-2.9-3.4-3.7-5.6c-0.9-2.2-1.3-4.9-1.3-7.9v-28.7c0-0.2,0.1-0.5,0.2-0.6c0.1-0.2,0.4-0.4,0.8-0.5
	c0.4-0.1,0.9-0.2,1.5-0.3c0.6-0.1,1.4-0.1,2.3-0.1c0.9,0,1.7,0,2.3,0.1c0.6,0.1,1.1,0.2,1.5,0.3c0.4,0.1,0.6,0.3,0.8,0.5
	c0.1,0.2,0.2,0.4,0.2,0.6v27.9c0,1.9,0.2,3.5,0.7,4.9c0.5,1.4,1.1,2.5,2,3.4c0.9,0.9,1.9,1.6,3.1,2c1.2,0.4,2.6,0.7,4,0.7
	c1.5,0,2.9-0.2,4-0.7c1.2-0.5,2.2-1.1,3-2c0.8-0.9,1.5-2,1.9-3.3c0.4-1.3,0.7-2.8,0.7-4.4v-28.4c0-0.2,0.1-0.5,0.2-0.6
	c0.1-0.2,0.4-0.4,0.8-0.5c0.4-0.1,0.9-0.2,1.5-0.3c0.6-0.1,1.4-0.1,2.3-0.1c0.9,0,1.7,0,2.3,0.1c0.6,0.1,1.1,0.2,1.4,0.3
	c0.4,0.1,0.6,0.3,0.8,0.5c0.1,0.2,0.2,0.4,0.2,0.6V144.9z M365.4,114.4v7.9c-2.3,0-4.2,0.5-5.8,1.3c-1.6,0.9-2.9,2.1-3.8,3.5
	c-1,1.5-1.7,3.2-2.1,5.2c-0.4,2-0.6,4.1-0.6,6.2c0,2.6,0.2,4.9,0.6,7c0.4,2.1,1,3.8,2,5.3c0.9,1.5,2.2,2.6,3.7,3.3
	c1.6,0.8,3.5,1.2,5.9,1.2h0.1v7.9l-0.4,0c-3.7,0-6.9-0.5-9.6-1.4c-2.7-0.9-5-2.4-6.8-4.4c-1.8-2-3.2-4.5-4.1-7.5
	c-0.9-3.1-1.4-6.7-1.4-10.9c0-3.8,0.5-7.3,1.5-10.3c1-3,2.4-5.6,4.3-7.8c1.9-2.1,4.3-3.8,7.1-4.9C358.7,115,361.9,114.5,365.4,114.4
	L365.4,114.4z"/>
<path class="st1" d="M461,95.3c0,1.3-0.2,2.5-0.5,3.5c-0.3,1-0.8,1.9-1.5,2.6c-0.6,0.7-1.4,1.3-2.4,1.7c-0.9,0.4-2,0.6-3.2,0.6
	l0-2.7c0.8,0,1.4-0.2,1.9-0.4c0.5-0.3,1-0.7,1.3-1.2c0.3-0.5,0.6-1.1,0.7-1.8c0.1-0.7,0.2-1.4,0.2-2.2c0-0.8-0.1-1.6-0.2-2.3
	c-0.1-0.7-0.4-1.3-0.7-1.8c-0.3-0.5-0.7-0.9-1.3-1.1c-0.5-0.3-1.2-0.4-2-0.4l0,0l0-2.6l0.2,0c1.2,0,2.3,0.2,3.2,0.5
	c0.9,0.3,1.7,0.8,2.3,1.5c0.6,0.7,1.1,1.5,1.4,2.5C460.9,92.7,461,93.9,461,95.3L461,95.3z M472.7,88.9c0,0.2,0,0.5,0,0.6
	c0,0.2-0.1,0.3-0.1,0.4c0,0.1-0.1,0.2-0.2,0.2c-0.1,0.1-0.1,0.1-0.2,0.1l-5.2,0l0,4.3l4.9,0c0.1,0,0.1,0,0.2,0.1
	c0.1,0,0.1,0.1,0.2,0.2c0,0.1,0.1,0.2,0.1,0.4c0,0.2,0,0.4,0,0.6c0,0.2,0,0.4,0,0.6c0,0.2-0.1,0.3-0.1,0.4c0,0.1-0.1,0.2-0.2,0.2
	c-0.1,0-0.1,0.1-0.2,0.1l-4.9,0l0,5.9c0,0.1,0,0.2-0.1,0.2c-0.1,0.1-0.1,0.1-0.3,0.2c-0.1,0-0.3,0.1-0.5,0.1c-0.2,0-0.5,0-0.8,0
	c-0.3,0-0.6,0-0.8,0c-0.2,0-0.4-0.1-0.5-0.1c-0.1,0-0.2-0.1-0.3-0.2c-0.1-0.1-0.1-0.1-0.1-0.2l0-14.4c0-0.4,0.1-0.6,0.3-0.8
	c0.2-0.2,0.4-0.2,0.7-0.2l7.5,0c0.1,0,0.1,0,0.2,0.1c0.1,0,0.1,0.1,0.2,0.2c0,0.1,0.1,0.2,0.1,0.4C472.6,88.4,472.7,88.6,472.7,88.9
	z M453.5,103.7l-0.1,0c-1.2,0-2.3-0.2-3.2-0.5c-0.9-0.3-1.7-0.8-2.3-1.5c-0.6-0.7-1.1-1.5-1.4-2.5c-0.3-1-0.5-2.2-0.5-3.6
	c0-1.3,0.2-2.4,0.5-3.5c0.3-1,0.8-1.9,1.5-2.6c0.6-0.7,1.4-1.3,2.4-1.7c0.9-0.4,2-0.6,3.2-0.6l0,2.6c-0.8,0-1.4,0.2-2,0.4
	c-0.5,0.3-1,0.7-1.3,1.2c-0.3,0.5-0.6,1.1-0.7,1.7c-0.1,0.7-0.2,1.4-0.2,2.1c0,0.9,0.1,1.6,0.2,2.3c0.1,0.7,0.4,1.3,0.7,1.8
	c0.3,0.5,0.7,0.9,1.3,1.1c0.5,0.3,1.2,0.4,2,0.4l0,0L453.5,103.7z"/>
<path class="st1" d="M501.1,56.1v-9.2c0.8-0.1,1.5-0.2,2.2-0.5c1.1-0.4,2.1-0.9,2.9-1.6c0.8-0.7,1.3-1.5,1.7-2.4
	c0.4-0.9,0.6-2,0.6-3.1c0-1.8-0.4-3.2-1.2-4.4c-0.8-1.2-2.1-2.1-3.9-2.5c-0.5-0.1-1.2-0.3-1.9-0.3l-0.4,0v-8.3c0.9,0,1.6,0,2.3,0.1
	c0.9,0.1,1.7,0.1,2.5,0.2c2.1,0.3,4,0.8,5.8,1.6c1.7,0.7,3.2,1.7,4.3,2.9c1.2,1.2,2.1,2.6,2.7,4.2c0.6,1.6,0.9,3.5,0.9,5.6
	c0,1.8-0.2,3.4-0.7,4.9c-0.4,1.5-1.1,2.8-2,3.9c-0.9,1.1-2,2.1-3.2,3c-1.3,0.8-2.7,1.5-4.4,2c0.8,0.4,1.5,0.9,2.2,1.4
	c0.7,0.5,1.3,1.2,2,2c0.6,0.8,1.2,1.7,1.7,2.7c0.5,1,1.1,2.1,1.6,3.4l4.5,10.5c0.4,1,0.7,1.8,0.8,2.3c0.1,0.5,0.2,0.9,0.2,1.1
	c0,0.3-0.1,0.6-0.2,0.8c-0.1,0.2-0.4,0.4-0.8,0.5c-0.4,0.1-1,0.2-1.8,0.3c-0.8,0.1-1.9,0.1-3.2,0.1c-1.1,0-2.1,0-2.7-0.1
	c-0.7-0.1-1.2-0.2-1.6-0.3c-0.4-0.2-0.7-0.4-0.8-0.6c-0.2-0.2-0.3-0.5-0.4-0.8L506,63.4c-0.6-1.3-1.1-2.5-1.7-3.6
	c-0.6-1-1.2-1.9-1.8-2.6C502,56.8,501.6,56.4,501.1,56.1L501.1,56.1z M560.9,60.9c0,2.8-0.5,5.2-1.6,7.4c-1,2.1-2.5,3.9-4.2,5.3
	c-1.8,1.4-3.9,2.5-6.2,3.2c-2.4,0.7-4.9,1.1-7.6,1.1c-1.8,0-3.5-0.1-5.1-0.4c-1.6-0.3-3-0.7-4.2-1.1c-1.2-0.4-2.2-0.9-3-1.3
	c-0.8-0.5-1.4-0.9-1.7-1.2c-0.4-0.4-0.6-0.9-0.8-1.5c-0.2-0.7-0.2-1.6-0.2-2.9c0-0.9,0-1.6,0.1-2.1c0.1-0.6,0.2-1,0.3-1.4
	c0.1-0.4,0.3-0.6,0.5-0.8c0.2-0.2,0.4-0.2,0.7-0.2c0.4,0,0.9,0.2,1.6,0.7c0.7,0.4,1.6,1,2.7,1.5c1.1,0.5,2.4,1.1,3.9,1.5
	c1.5,0.4,3.3,0.7,5.3,0.7c1.3,0,2.5-0.2,3.5-0.5c1-0.3,1.9-0.8,2.6-1.3c0.7-0.6,1.3-1.3,1.7-2.1c0.4-0.9,0.6-1.8,0.6-2.8
	c0-1.2-0.3-2.2-1-3.1c-0.7-0.9-1.5-1.6-2.6-2.3c-1.1-0.7-2.3-1.3-3.6-1.9c-1.3-0.6-2.7-1.2-4.1-1.9c-1.4-0.7-2.8-1.4-4.1-2.2
	c-1.3-0.8-2.5-1.8-3.6-3c-1.1-1.2-1.9-2.5-2.6-4.1c-0.7-1.6-1-3.5-1-5.7c0-2.5,0.5-4.8,1.4-6.7c0.9-1.9,2.2-3.5,3.8-4.8
	c1.6-1.3,3.5-2.2,5.7-2.9c2.2-0.6,4.5-0.9,6.9-0.9c1.2,0,2.5,0.1,3.8,0.3c1.3,0.2,2.4,0.4,3.5,0.8c1.1,0.3,2.1,0.7,2.9,1.1
	c0.9,0.4,1.4,0.8,1.7,1c0.3,0.3,0.5,0.5,0.6,0.7c0.1,0.2,0.2,0.4,0.2,0.8c0.1,0.3,0.1,0.7,0.2,1.2c0,0.5,0,1.1,0,1.8
	c0,0.8,0,1.5-0.1,2c0,0.5-0.1,1-0.2,1.4c-0.1,0.3-0.2,0.6-0.4,0.8c-0.2,0.2-0.4,0.3-0.7,0.3c-0.3,0-0.8-0.2-1.4-0.6
	c-0.7-0.4-1.5-0.8-2.4-1.2c-1-0.5-2.1-0.9-3.3-1.2c-1.3-0.4-2.6-0.6-4.1-0.6c-1.2,0-2.2,0.1-3.1,0.4c-0.9,0.3-1.6,0.7-2.2,1.2
	c-0.6,0.5-1,1.1-1.3,1.8c-0.3,0.7-0.4,1.5-0.4,2.3c0,1.2,0.3,2.2,1,3.1c0.6,0.9,1.5,1.6,2.6,2.3c1.1,0.7,2.3,1.3,3.7,1.9
	c1.4,0.6,2.8,1.2,4.2,1.9c1.4,0.7,2.8,1.4,4.2,2.2c1.4,0.8,2.6,1.8,3.6,3c1.1,1.2,1.9,2.5,2.6,4.1C560.6,56.9,560.9,58.8,560.9,60.9
	z M501.1,23.7v8.3c-0.7-0.1-1.5-0.1-2.5-0.1h-4.8V47h5.5c0.7,0,1.3,0,1.8-0.1v9.2c-0.3-0.2-0.6-0.3-0.9-0.5c-0.9-0.3-1.9-0.5-3-0.5
	h-3.4v20.2c0,0.3-0.1,0.5-0.3,0.7c-0.2,0.2-0.5,0.4-0.9,0.5c-0.4,0.1-1,0.3-1.7,0.3c-0.7,0.1-1.6,0.1-2.6,0.1c-1,0-1.9,0-2.6-0.1
	c-0.7-0.1-1.3-0.2-1.7-0.3c-0.4-0.1-0.7-0.3-0.9-0.5c-0.2-0.2-0.3-0.5-0.3-0.7V27.1c0-1.2,0.3-2.1,0.9-2.6c0.6-0.5,1.4-0.8,2.3-0.8
	h13.7L501.1,23.7L501.1,23.7z M451.1,64.7v-8.3h7.5l-7.5-22.6h0V23.5h0.1c1.6,0,2.9,0,3.9,0.1c1,0,1.7,0.1,2.2,0.3
	c0.5,0.2,0.9,0.4,1.1,0.7c0.2,0.3,0.4,0.7,0.6,1.2l16.4,47c0.3,1,0.5,1.8,0.6,2.3c0.1,0.6,0,1-0.3,1.3c-0.3,0.3-0.8,0.5-1.6,0.5
	c-0.8,0.1-1.8,0.1-3.2,0.1c-1.4,0-2.5,0-3.3-0.1c-0.8,0-1.4-0.1-1.8-0.2c-0.4-0.1-0.7-0.3-0.9-0.5c-0.2-0.2-0.3-0.5-0.4-0.9
	l-3.6-10.7H451.1z M369.9,56.7v18.7c0,0.3-0.1,0.5-0.3,0.7c-0.2,0.2-0.5,0.4-0.9,0.5c-0.4,0.1-1,0.3-1.7,0.3
	c-0.7,0.1-1.6,0.1-2.6,0.1c-1.1,0-1.9,0-2.6-0.1c-0.7-0.1-1.2-0.2-1.7-0.3c-0.4-0.1-0.7-0.3-0.9-0.5c-0.2-0.2-0.2-0.5-0.2-0.7V56.7
	l-14.5-28.9c-0.5-1-0.9-1.8-1-2.4c-0.2-0.6-0.1-1,0.3-1.3c0.3-0.3,0.9-0.5,1.7-0.5c0.9-0.1,2-0.1,3.5-0.1c1.3,0,2.3,0,3,0.1
	c0.8,0.1,1.4,0.2,1.8,0.3c0.4,0.2,0.8,0.3,1,0.6c0.2,0.2,0.4,0.6,0.6,0.9l5.9,13.1c0.6,1.3,1.1,2.6,1.7,4c0.6,1.4,1.1,2.9,1.7,4.4
	h0.1c0.5-1.5,1.1-2.9,1.6-4.3c0.5-1.4,1.1-2.7,1.6-4l5.8-13c0.1-0.4,0.3-0.8,0.5-1.1c0.2-0.3,0.5-0.5,0.9-0.6c0.4-0.2,1-0.3,1.7-0.3
	c0.7-0.1,1.7-0.1,2.8-0.1c1.6,0,2.8,0,3.6,0.1c0.9,0.1,1.4,0.2,1.8,0.5c0.3,0.3,0.4,0.7,0.2,1.3c-0.2,0.6-0.5,1.4-1,2.3L369.9,56.7
	L369.9,56.7z M451.1,23.5v10.4h0l-7.5,22.6h7.5v8.3h-9.9l-3.4,10.4c-0.1,0.4-0.3,0.7-0.4,1c-0.2,0.3-0.5,0.5-0.9,0.6
	c-0.4,0.1-1,0.3-1.7,0.3c-0.7,0.1-1.7,0.1-2.9,0.1c-1.3,0-2.2,0-3-0.1c-0.7-0.1-1.2-0.3-1.5-0.6c-0.3-0.3-0.4-0.8-0.3-1.3
	c0.1-0.6,0.3-1.3,0.6-2.3l16.4-47.1c0.2-0.5,0.3-0.8,0.6-1.1c0.2-0.3,0.6-0.5,1.1-0.7c0.5-0.1,1.1-0.2,2-0.3
	C448.7,23.5,449.8,23.5,451.1,23.5L451.1,23.5z M423.5,72.6c0,0.8,0,1.5-0.1,2c-0.1,0.5-0.2,1-0.3,1.3c-0.1,0.3-0.3,0.6-0.5,0.7
	c-0.2,0.2-0.4,0.2-0.7,0.2h-26.7c-0.9,0-1.7-0.3-2.3-0.8c-0.6-0.5-0.9-1.4-0.9-2.6V27.1c0-1.2,0.3-2.1,0.9-2.6
	c0.6-0.5,1.4-0.8,2.3-0.8h26.5c0.3,0,0.5,0.1,0.7,0.2c0.2,0.1,0.3,0.4,0.5,0.7c0.1,0.3,0.2,0.8,0.3,1.3c0.1,0.5,0.1,1.2,0.1,2
	c0,0.8,0,1.4-0.1,1.9c-0.1,0.5-0.2,1-0.3,1.3c-0.1,0.3-0.3,0.6-0.5,0.7c-0.2,0.2-0.4,0.2-0.7,0.2h-18.9v13h16c0.3,0,0.5,0.1,0.7,0.2
	c0.2,0.2,0.4,0.4,0.5,0.7c0.1,0.3,0.2,0.7,0.3,1.3c0.1,0.5,0.1,1.2,0.1,1.9c0,0.8,0,1.5-0.1,2c-0.1,0.5-0.2,0.9-0.3,1.2
	c-0.1,0.3-0.3,0.5-0.5,0.7c-0.2,0.1-0.4,0.2-0.7,0.2h-16v15h19.1c0.2,0,0.5,0.1,0.7,0.2c0.2,0.1,0.4,0.4,0.5,0.7
	c0.1,0.3,0.2,0.8,0.3,1.3C423.5,71.1,423.5,71.8,423.5,72.6z"/>
</svg>
